<?xml version="1.0" encoding="utf-8"?>
<!-- Generator: Adobe Illustrator 28.0.0, SVG Export Plug-In . SVG Version: 6.00 Build 0)  -->
<svg version="1.1" id="OBJECTS" xmlns="http://www.w3.org/2000/svg" xmlns:xlink="http://www.w3.org/1999/xlink" x="0px" y="0px"
	 viewBox="0 0 227 258.1" style="enable-background:new 0 0 227 258.1;" xml:space="preserve">
<style type="text/css">
	.st0{filter:url(#Adobe_OpacityMaskFilter);}
	.st1{fill:url(#SVGID_00000119838742852139728150000005508960168311443899_);}
	.st2{mask:url(#SVGID_1_);}
	.st3{fill:#4C3F3E;}
	.st4{fill:url(#SVGID_00000052789166940974354100000000728053836601217448_);}
	.st5{fill:url(#SVGID_00000083075653421685104150000009428892478272330120_);}
	.st6{fill:url(#SVGID_00000160172413538030092480000004818322385290658182_);}
	.st7{fill:url(#SVGID_00000145765528505147484560000009979848884900189865_);}
	.st8{fill:url(#SVGID_00000044164419000426879960000017444238773400295614_);}
	.st9{fill:url(#SVGID_00000108311277922588471790000003967131186346680996_);}
	.st10{fill:url(#SVGID_00000179639530563421390080000007954192638937542795_);}
	.st11{fill:url(#SVGID_00000024694301922857469900000008428785890135472300_);}
	.st12{fill:url(#SVGID_00000088103280137955357010000013502706160674471847_);}
	.st13{fill:url(#SVGID_00000124857130059817495580000018021554278472325300_);}
	.st14{fill:url(#SVGID_00000104686511538255015080000015177354717606204593_);}
	.st15{fill:url(#SVGID_00000131348483657982730690000002375279352591055507_);}
	.st16{fill:url(#SVGID_00000067959003619762740650000015902605127064669343_);}
	.st17{fill:url(#SVGID_00000089542876902476799200000015181753098260311968_);}
	.st18{fill:url(#SVGID_00000172406650275465298560000005626332203378196365_);}
	.st19{fill:url(#SVGID_00000107572689204464261540000011170027790601255082_);}
	.st20{fill:url(#SVGID_00000152231445940303394970000017556792797233547454_);}
	.st21{fill:url(#SVGID_00000158728703068132336660000007271537704562973056_);}
	.st22{fill:url(#SVGID_00000135674791303752289520000015036703603393767821_);}
	.st23{fill:url(#SVGID_00000178898512861952040800000003596412934324293302_);}
	.st24{fill:url(#SVGID_00000182518700124934820860000004762437035844128402_);}
	.st25{fill:url(#SVGID_00000074437075523800633680000015295191838672053658_);}
	.st26{fill:url(#SVGID_00000003105568517132365570000014471874507656523701_);}
</style>
<defs>
	<filter id="Adobe_OpacityMaskFilter" filterUnits="userSpaceOnUse" x="6.5" y="-19.5" width="218.2" height="171.6">
		<feColorMatrix  type="matrix" values="1 0 0 0 0  0 1 0 0 0  0 0 1 0 0  0 0 0 1 0"/>
	</filter>
</defs>
<mask maskUnits="userSpaceOnUse" x="6.5" y="-19.5" width="218.2" height="171.6" id="SVGID_1_">
	<g class="st0">
		
			<linearGradient id="SVGID_00000142172938841497848190000017646470110593411479_" gradientUnits="userSpaceOnUse" x1="113.2769" y1="258.11" x2="113.2769" y2="-9.094947e-13">
			<stop  offset="0.6355" style="stop-color:#FFFFFF"/>
			<stop  offset="0.9784" style="stop-color:#000000"/>
		</linearGradient>
		<rect x="-0.4" style="fill:url(#SVGID_00000142172938841497848190000017646470110593411479_);" width="227.4" height="258.1"/>
	</g>
</mask>
<g class="st2">
	<g>
		<g>
			<path class="st3" d="M87.8,87.3c1.6-3.7,3.6-7.3,6.1-10.5c4.4-5.7,9.1-11.1,14.3-16c2.6-2.4,5.2-4.7,7.8-7.1
				c4.1-3.8,8.1-7.7,11.5-12.2c1.8-2.3,3.3-4.7,5-7c0.3-0.4,0.7-0.8,1-1.2c0.1,0,0.1,0.1,0.2,0.1c-0.1,0.2-0.1,0.4-0.2,0.6
				c-2.6,3.7-4.9,7.5-7.9,10.8c-4.2,4.7-8.7,9-13.4,13c-5.3,4.6-10,9.8-14.6,15.1c-3.7,4.3-6.9,8.9-9.5,14
				C88,87.1,87.9,87.2,87.8,87.3L87.8,87.3z"/>
			<path class="st3" d="M136.8,23.4c0.3,2.5-0.3,4.8-1.3,7c-0.8,1.8-1.7,3.5-2.6,5.2c-2.6,5-4.3,10.2-5.7,15.6
				c-1.4,5-3.2,9.8-5.8,14.3c-2.1,3.6-4.8,6.7-8.2,9.2c-2.5,1.8-5.1,3.6-7.7,5.2c-3.4,2.2-6.6,4.6-9.6,7.1c-1.7,1.4-3.4,2.7-5.2,3.9
				c-0.8,0.5-1.6,0.9-2.4,1.3c-0.8,0.4-1.7,0.6-2.7,0.6c-1.6,0-2.7-0.8-3.4-2.1c-0.7-1.4-0.8-2.8-0.5-4.3c0.6-3.2,1.8-6.2,3-9.2
				c0.7-1.6,1.4-3.3,2.2-4.9c1.7-3.8,3.1-7.7,3.9-11.8c0.6-3.1,2.2-5.7,4.4-7.9c3.1-3.1,6.8-5.1,11-6.3c3.6-1.1,7.2-1.9,10.8-2.9
				c3-0.8,5.9-1.7,8.6-3.2c5.7-3.2,9.4-7.9,10.8-14.4c0.1-0.6,0.2-1.1,0.3-1.7C136.7,23.9,136.7,23.6,136.8,23.4L136.8,23.4z
				 M132.2,35.6c0,0-0.1,0-0.1-0.1c-0.1,0.2-0.3,0.3-0.4,0.4c-2.8,3-6,5.2-9.9,6.4c-3.6,1.1-7.2,2.1-10.9,3.1
				c-3.2,0.9-6.5,1.7-9.5,3.3c-0.4,0.2-0.8,0.5-1.2,0.8c-3.3,2.8-4.7,6.4-5,10.6c-0.2,2.3-0.3,4.7-0.6,6.9c-0.5,3.2-1.6,6.1-3.8,8.6
				c-1.4,1.6-2.9,3.2-4.3,4.7c-1.8,1.8-3.1,3.9-4.2,6.3c-0.3,0.8-0.5,1.5-0.4,2.3c0.2,1.8,1.3,3.8,4.1,3.4c0.6-0.1,1.2-0.2,1.8-0.5
				c1.9-0.8,3.6-1.9,4.8-3.6c1.7-2.4,3.3-4.8,4.9-7.2c1.3-2,2.6-4.1,4-6.1c1.5-2.2,3.4-4,5.8-5.2c0.8-0.4,1.6-0.9,2.5-1.3
				c5-2.4,9.4-5.6,13-9.8c1.5-1.7,2.8-3.5,3.2-5.8c0.1-0.6,0.3-1.2,0.5-1.8c1.3-4.3,2.5-8.7,4.4-12.8
				C131.4,37.5,131.8,36.5,132.2,35.6L132.2,35.6z M124.3,58c-0.2,0.1-0.3,0.2-0.3,0.2c-0.2,0.2-0.3,0.4-0.5,0.6
				c-2.4,2.7-4.9,5.3-8,7.3c-1.8,1.1-3.6,2.1-5.4,3.1c-4.4,2.4-8.1,5.7-10.7,10c-1.8,3-3.6,6-5.8,8.8c-0.1,0.1-0.1,0.2-0.2,0.5
				c0.5-0.4,0.9-0.7,1.2-1c4-3.5,8.3-6.5,12.8-9.3c1.7-1.1,3.4-2.3,5.1-3.5c2.4-1.8,4.6-3.8,6.4-6.3c2.2-3,3.9-6.2,5.3-9.6
				C124.2,58.5,124.2,58.3,124.3,58L124.3,58z M98,51.1c-0.2,0-0.2,0-0.2,0c-2.6,2-4.8,4.3-5.9,7.5c-0.6,1.8-1,3.6-1.4,5.4
				c-0.8,3.3-2.2,6.3-3.5,9.4c-1.5,3.5-3.2,7-4.2,10.7c-0.1,0.4-0.2,0.7-0.3,1.1c0.1,0,0.1,0.1,0.2,0.1c0.1-0.1,0.1-0.2,0.1-0.2
				c1.3-2.7,3.3-4.8,5.4-6.9c1.1-1.1,2.1-2.3,3.1-3.6c1.7-2.2,2.6-4.8,3-7.5c0.3-2.1,0.4-4.2,0.4-6.3c0-1.5,0.3-3,0.7-4.4
				C95.8,54.5,96.8,52.8,98,51.1L98,51.1z"/>
		</g>
		<path class="st3" d="M139.1-4.1c0,0.5,0,0.9,0,1.3c-0.2,2-0.5,4-0.7,6c-0.2,2.2-0.4,4.3-0.6,6.5c-0.2,2.1-0.4,4.3-0.5,6.4
			c-0.1,2.1-0.2,4.2-0.2,6.3c0.1,3.3,0.2,6.6,0.5,9.9c0.3,3.4,1,6.7,1.8,10c0.9,3.5,1.5,6.9,1.6,10.5c0.2,4.9-0.7,9.6-2.6,14.1
			c-1.5,3.6-3.3,7.2-5,10.8c-0.9,1.9-1.9,3.7-2.7,5.6c-0.4,0.9-0.6,1.9-1,3.1c-0.1-0.3-0.2-0.5-0.1-0.7c0.2-0.9,0.4-1.8,0.8-2.6
			c0.8-1.8,1.7-3.6,2.6-5.4c2-4,4.1-8,5.6-12.3c1.5-4.2,2.2-8.6,2-13.1c-0.2-3.3-0.8-6.7-1.6-9.9c-0.8-3.3-1.5-6.6-1.8-10
			c-0.5-5.2-0.7-10.5-0.4-15.7c0.2-4,0.7-7.9,1.1-11.9c0.2-2.6,0.5-5.3,0.8-7.9C138.6-3.5,138.6-3.9,139.1-4.1L139.1-4.1z"/>
		<g>
			<path class="st3" d="M93.4,129.7c2.7-11.5,7.2-22,15.4-30.8C101,107.9,96.6,118.5,93.4,129.7z"/>
			<path class="st3" d="M123.3,91.1c0,0.1,0,0.1-0.1,0.2c-4.2,2.3-7.5,5.7-10.5,9.4c-3.2,4-6,8.3-8.4,12.8c-0.3,0.5-0.6,1-1,1.4
				c0.3-0.5,0.5-1.1,0.8-1.6c3.2-6.1,6.9-11.8,11.8-16.8c2-2.1,4.2-3.9,6.9-5.1C122.9,91.2,123.1,91.1,123.3,91.1
				C123.2,91.1,123.3,91.1,123.3,91.1L123.3,91.1z"/>
			<path class="st3" d="M133.2,91.2c0.3,0.3,0.5,0.6,0.8,0.9c1.1,1.4,1.8,3,2.4,4.7c1,2.9,1.7,5.9,2.1,9c0.4,3.1,0.7,6.2,1.1,9.3
				c0.1,0.6,0.1,1.3,0,1.9c-0.3-2.7-0.7-5.4-1-8.2c-0.5-3.9-1.2-7.7-2.4-11.4c-0.7-2-1.6-4-2.8-5.7c-0.1-0.1-0.2-0.3-0.2-0.4
				C133.1,91.4,133.1,91.3,133.2,91.2L133.2,91.2z"/>
			<path class="st3" d="M118.3,131.6c2.5-9,5.1-17.9,7.1-27.1C125.5,107.5,119.8,127.6,118.3,131.6z"/>
			<path class="st3" d="M108.7,89.8c-2.6,1.2-4.9,2.8-7.1,4.5c-3.9,3.1-7,6.9-9.9,10.9c-1.2,1.6-2.3,3.3-3.6,4.9
				c0.1-0.2,0.2-0.5,0.4-0.7c2.2-3.5,4.6-6.8,7.3-9.9c3-3.4,6.4-6.4,10.3-8.6c0.8-0.5,1.7-0.8,2.5-1.3
				C108.6,89.7,108.7,89.7,108.7,89.8L108.7,89.8z"/>
			<path class="st3" d="M111.7,121.3c3.1-5.9,6.1-11.9,9.2-17.9C120.8,104.7,113.7,118.6,111.7,121.3z"/>
			<path class="st3" d="M119.2,121.1c-0.3,1.5-5.9,16.8-6.6,18C112.8,138.1,118.6,122.2,119.2,121.1z"/>
			<path class="st3" d="M135.1,137.6c-0.1-0.3-0.2-0.6-0.3-0.9c-0.2-1.6-0.3-3.1-0.4-4.7c-0.1-2.6-0.2-5.2-0.3-7.8
				c0-0.5,0-1,0.1-1.5c0.1,2.5,0.3,5,0.5,7.5c0.2,2.5,0.4,5,0.6,7.5C135.3,137.6,135.2,137.6,135.1,137.6L135.1,137.6z"/>
			<path class="st3" d="M104,125.6c-1.4,4-2.8,8-4.3,12.2c-0.3-0.5-0.2-0.9-0.1-1.1c0.6-1.8,1.2-3.5,1.8-5.3
				c0.7-1.9,1.5-3.8,2.3-5.7c0-0.1,0.1-0.2,0.2-0.2C103.9,125.5,103.9,125.5,104,125.6L104,125.6z"/>
			<path class="st3" d="M109.7,107c2.2-4.3,5.3-8.1,9-11.3C115.3,99.2,112.4,103,109.7,107z"/>
			<path class="st3" d="M120,151.3c1.3-3.6,2.6-7.2,4-10.9c0.1,1.2-2.9,9.7-3.8,10.9C120.2,151.4,120.1,151.3,120,151.3L120,151.3z"
				/>
			<path class="st3" d="M85.7,119.7c-1.4,3.2-2.7,6.5-4.1,9.7c0,0.1-0.2,0.2-0.3,0.3C81.2,128.6,83.4,123.5,85.7,119.7L85.7,119.7z"
				/>
			<path class="st3" d="M141.4,116.4c0.4,4.8,0.7,9.6,1.1,14.4C142,129.9,141.1,120.1,141.4,116.4z"/>
			<path class="st3" d="M142.1,139.2c0.5,3.6,0.7,6.9,0.8,10.3c-0.1,0-0.1,0-0.2,0.1c-0.1-0.2-0.2-0.3-0.2-0.5
				c-0.2-3.1-0.3-6.2-0.5-9.4C142,139.6,142,139.5,142.1,139.2L142.1,139.2z"/>
			<path class="st3" d="M135.4,100.6c0.7,1.4,1.7,8.1,1.5,10.3C136.4,107.3,135.9,103.9,135.4,100.6z"/>
			<path class="st3" d="M113.6,150.2c0.8-2.2,1.5-4.4,2.3-6.6C116.1,145.1,114.5,149.6,113.6,150.2z"/>
			<path class="st3" d="M101.3,136.9c0.7-2.1,1.4-4.1,2.1-6.2c0,1-1.5,5.8-1.9,6.2C101.4,136.9,101.4,136.9,101.3,136.9L101.3,136.9
				z"/>
			<path class="st3" d="M84.8,124.4c-0.6,1.5-1.2,2.9-1.8,4.4c-0.1,0-0.1-0.1-0.2-0.1c0.3-1.5,1.1-2.9,1.7-4.4L84.8,124.4
				L84.8,124.4z"/>
			<path class="st3" d="M133.4,135.1c-0.6-0.8-0.9-3.3-0.7-4.9C132.9,131.7,133.1,133.3,133.4,135.1z"/>
			<path class="st3" d="M123.4,147.1c-0.4,1.1-0.8,2.2-1.2,3.2c-0.1,0-0.2-0.1-0.3-0.1c0.4-1.1,0.8-2.1,1.2-3.2
				C123.2,147,123.3,147,123.4,147.1L123.4,147.1z"/>
		</g>
		<path class="st3" d="M130.2,83.4c0,1.1-0.1,2.2,0,3.3c0.1,1.2,0.7,2.3,1.6,3.2c0.6,0.6,1.2,1.1,1.9,1.6c2.6,2.1,4.7,4.5,6.4,7.5
			c2.6,4.8,4.2,10,4.7,15.4c0.4,4.2,0.7,8.5,0.9,12.7c0.2,3.9,0.7,7.8,1.3,11.7c0.4,2.3,0.7,4.6,0.5,6.9c-0.1,1.2-0.3,2.4-1,3.5
			c-0.9,1.4-1.9,1.7-3.4,1.2c-1.3-0.5-2.3-1.4-3.1-2.5c-0.7-0.9-1.4-2-1.7-3.1c-1.2-3.4-2.7-6.6-5-9.4c-0.8-0.9-1.3-2.1-1.9-3.1
			c-0.2-0.3-0.3-0.5-0.6-1c-0.1,0.4-0.2,0.6-0.2,0.9c-0.1,3.2-0.7,6.3-1.9,9.3c-1.2,3.2-3,6.1-5.6,8.4c-1.2,1.1-2.6,2-4.3,2.2
			c-1.4,0.2-2.7,0-3.8-0.9c-1-0.8-2.1-1.2-3.3-1.3c-3.4-0.4-5.8-3.1-6-6.5c-0.1-3.1,0.3-6.1,1.5-8.9c0.1-0.1,0.1-0.2,0.1-0.5
			c-0.3,0.2-0.6,0.4-0.8,0.5c-1.5,1.2-3.2,2.1-5,2.8c-0.9,0.3-1.8,0.8-2.6,1.4c-1.3,1-2.7,1.4-4.3,1c-1.2-0.3-2.4-0.2-3.6,0
			c-1.7,0.3-2.8-0.1-3.6-2.2c-0.4-1.1-0.6-2.4-0.6-3.7c-0.1-2.6,0.3-5.1,0.8-7.6c0.1-0.5,0.2-1,0.2-1.5c-0.2,0.2-0.3,0.4-0.5,0.7
			c-0.9,1.4-2.1,2.6-3.6,3.5c-1,0.6-2,1.4-3,2.1c-0.5,0.3-1,0.7-1.6,0.9c-1,0.4-1.7,0.1-2-1c-0.2-0.5-0.2-1.1-0.2-1.6
			c-0.1-2,0.5-3.8,1.1-5.6c1.7-5,4.4-9.5,7.4-13.8c3.3-4.8,6.9-9.3,11.2-13.2c4-3.7,8.5-6.6,13.8-8.1c4.2-1.2,8.5-1.5,12.9-1
			c2.2,0.3,4-0.4,5.5-2.1C129.3,84.6,129.8,84,130.2,83.4L130.2,83.4z M87.2,133c0,0.6,0.1,1.4,0.1,2.2c0.1,1,0.3,1.9,0.9,2.8
			c0.6,0.9,1.3,1.3,2.3,1.1c1.4-0.2,2.9-0.3,4.3,0s2.6-0.1,3.8-0.9c0.8-0.6,1.7-1.1,2.7-1.4c2.1-0.7,3.9-1.8,5.5-3.2
			c3.3-2.8,5.8-6.2,7.8-10c1.6-3,3.2-6.1,4.6-9.2c1.3-2.8,2.6-5.6,3.6-8.5c1.4-4.2,2.6-8.6,3.8-12.9c0.2-0.9,0.2-1.8-0.2-2.6
			c-0.3-0.7-0.8-1.2-1.5-1.4c-1-0.2-2-0.3-2.9-0.2c-4.1,0.5-7.9,1.7-11.5,3.8c-6.2,3.6-11,8.5-14.9,14.4c-2.8,4.3-4.8,9-6.4,13.9
			C88.1,124.8,87.4,128.7,87.2,133L87.2,133z M147.2,143.6c-0.1-0.9-0.2-2.5-0.4-4c-0.8-4.7-1.4-9.4-1.5-14.1
			c-0.1-4.4-0.4-8.8-1.1-13.1c-0.8-5.3-2.5-10.2-5.3-14.8c-1.4-2.3-3.2-4.1-5.3-5.8c-0.8-0.6-1.7-0.9-2.7-1
			c-1.2-0.1-1.9,0.4-2.2,1.5c-0.2,0.6-0.2,1.3-0.3,2c-0.1,2.7-0.1,5.3-0.3,7.9c-0.4,4.8-0.6,9.7-0.3,14.6c0.4,7.4,2.5,14.1,7.1,20
			c1.2,1.6,2.1,3.3,2.8,5.2c0.4,1,0.7,2.1,1.2,3c0.8,1.8,2,3.4,3.7,4.4c1.8,1,3.1,0.5,3.9-1.4C147.1,146.9,147.2,145.6,147.2,143.6
			L147.2,143.6z M127.7,92.2c-0.1,0-0.2,0-0.2,0c-0.1,0.1-0.2,0.2-0.2,0.3c-0.3,1.1-0.6,2.2-0.9,3.3c-0.9,3.2-1.7,6.4-2.8,9.6
			c-2.1,6.2-5,12.1-8.1,17.9c-1.7,3-3.5,6-6,8.4c-1.4,1.3-2,2.9-2.5,4.6c-0.1,0.5-0.2,1-0.3,1.5c-0.4,2.1-0.7,4.2-0.3,6.4
			c0.1,0.7,0.3,1.5,0.8,2.1c1.2,1.7,2.7,2.9,4.8,3.1c1.2,0.1,2.3,0.5,3.3,1.3c1.2,1,2.5,1.1,4,0.8c1.2-0.3,2.2-0.9,3.2-1.7
			c2.6-2.1,4.3-4.9,5.6-7.9c1.2-2.8,1.8-5.7,2.1-8.6c0.2-1.7,0.1-3.4-0.5-5.1c-1-2.5-1.6-5.1-1.9-7.8c-0.7-5.6-0.5-11.1-0.1-16.7
			c0.3-3.5,0.5-7.1,0.3-10.6C127.8,92.8,127.8,92.5,127.7,92.2L127.7,92.2z M123.4,88.2c0-0.1,0-0.2,0-0.2c-0.8-0.4-1.8-0.4-2.7-0.5
			c-3.9-0.1-7.8,0.4-11.5,1.6c-5.1,1.7-9.3,4.7-13.2,8.4c-3.5,3.4-6.5,7.2-9.4,11.1c-3.3,4.6-6.2,9.3-8.1,14.6
			c-0.6,1.6-1.1,3.2-1.2,4.9c0,0.7,0,1.4,0.1,2.1c0.2,1.1,0.8,1.3,1.7,0.9c0.4-0.2,0.7-0.4,1.1-0.7c1.2-0.8,2.4-1.6,3.5-2.5
			c0.8-0.6,1.6-1.3,2.3-2.1c1.4-1.6,2.2-3.4,2.9-5.4c1-3.1,2.2-6.1,3.7-9.1c2.7-5.3,6.2-10.1,10.6-14.1c5.4-4.8,11.5-8.2,18.8-9
			C122.6,88.3,123,88.2,123.4,88.2L123.4,88.2z"/>
	</g>
	<g>
		<path class="st3" d="M177.8,57.3c-0.1-0.2-0.2-0.4-0.2-0.6c0-1.7,0-3.4-0.1-5.1c-0.1-3.8-0.2-7.7-0.2-11.5
			c-0.1-8.4,1.8-16.3,6.1-23.5c2.3-3.9,4.4-7.9,6.2-12c2.1-4.7,3.4-9.6,3.9-14.8c0.3-2.9,0.6-5.8,0.6-8.8c0-0.1,0-0.3,0.1-0.4
			c0.1,0,0.3,0,0.5,0c0,1.1,0.1,2.2,0,3.2c-0.2,2.6-0.5,5.1-0.8,7.6c-0.6,4.8-1.9,9.4-3.9,13.7c-1.8,3.8-3.8,7.5-5.8,11.2
			c-2.1,3.8-3.9,7.6-5,11.8c-0.7,2.6-1,5.3-1.2,8c-0.4,5.7,0.2,11.3,0.1,16.9c0,1.1,0,2.3,0,3.4c0,0.3-0.1,0.6-0.1,0.9
			C178,57.3,177.9,57.3,177.8,57.3L177.8,57.3z"/>
		<g>
			<path class="st3" d="M187.7,66.5c0.1,0.2,0.1,0.5,0.3,0.7c2.2,3.7,3.4,7.7,4.3,11.8c1,4.8,1.2,9.8,1,14.7
				c-0.3,5.2-1,10.3-2.7,15.2c-0.1,0.4-0.3,0.8-0.5,1.3c0,0.1-0.1,0.2-0.2,0.3c0.4-1.6,0.9-3.1,1.3-4.6c0.8-2.8,1.1-5.7,1.4-8.7
				c0.3-3,0.5-5.9,0.4-8.9c-0.4-6.8-1.4-13.4-4.5-19.5c-1-2-2.3-3.8-3.6-5.9c0.8,1,1.4,1.8,2.1,2.7
				C187.1,65.9,187.4,66.2,187.7,66.5L187.7,66.5L187.7,66.5z"/>
			<path class="st3" d="M160.8,94.4c1.6-12,5.5-22.9,13.8-32c-0.1,0.2-0.1,0.3-0.2,0.4c-0.1,0.1-0.2,0.3-0.3,0.4
				c-4.4,5.6-7.9,11.8-10.1,18.6c-1.2,3.7-2,7.5-2.8,11.3C160.9,93.6,160.8,94,160.8,94.4L160.8,94.4z"/>
			<path class="st3" d="M179.7,75.9c-1.4,10.6-4.2,20.8-8.6,30.5C175.2,96.5,177.7,86.3,179.7,75.9z"/>
			<path class="st3" d="M178.1,64.5c-4.6,8.8-7.2,18.4-10.5,27.7C170.5,82.7,173,73.1,178.1,64.5z"/>
			<path class="st3" d="M189.9,62.3c2.7,0.7,4.9,2.1,6.9,3.9c4.7,4.4,7.6,9.8,8.9,16.1c0.1,0.3,0.1,0.6,0,0.9
				c-0.2-0.6-0.3-1.1-0.5-1.6c-1.4-4.9-3.6-9.3-7-13.2C195.9,65.7,193.2,63.5,189.9,62.3L189.9,62.3z"/>
			<path class="st3" d="M168.9,83.6c0.9-2.5,1.7-4.9,2.6-7.4c1.4-3.8,2.8-7.6,4.8-11.1c0.6-1.1,1.4-2.2,2.2-3.3
				c0.2-0.3,0.6-0.5,0.9-0.8c-4.1,5.6-6.4,12.1-8.8,18.6c-0.5,1.4-1,2.7-1.5,4.1C169.1,83.7,169,83.6,168.9,83.6L168.9,83.6z"/>
			<path class="st3" d="M187.9,88.3c-0.2,7.2-1.7,14.1-4.7,20.7c0.1-0.4,0.2-0.9,0.4-1.3c0.1-0.5,0.3-0.9,0.5-1.4
				c1.5-4.4,2.7-8.8,3.2-13.4C187.5,91.3,187.7,89.8,187.9,88.3L187.9,88.3z"/>
			<path class="st3" d="M205.3,105.1c1.1-4.9,1.6-9.8,1.6-14.8C207.6,95.4,206.7,103.6,205.3,105.1z"/>
			<path class="st3" d="M154.6,74.4c2-3.8,8.5-10.9,10.6-11.6c-1.2,1.2-2.5,2.3-3.7,3.6c-1.2,1.3-2.3,2.6-3.5,4
				C156.9,71.8,155.8,73.1,154.6,74.4L154.6,74.4z"/>
			<path class="st3" d="M187.7,66.5c0.1-0.1,0.1-0.2,0.2-0.2c4.1,5.4,6.4,11.4,6.8,18.2c-0.4-1.8-0.7-3.7-1.1-5.5
				c-1-4.5-3-8.5-5.6-12.3C187.9,66.6,187.8,66.6,187.7,66.5L187.7,66.5L187.7,66.5z"/>
			<path class="st3" d="M165.6,100.1c-1,4-1.9,8-2.9,12c-0.1,0-0.2,0-0.3,0c0-0.3-0.1-0.7,0-1.1c0.8-3.7,1.7-7.3,3-10.8
				C165.4,100.2,165.5,100.2,165.6,100.1C165.5,100.1,165.6,100.1,165.6,100.1L165.6,100.1z"/>
			<path class="st3" d="M170.3,61.9c-0.5,0.4-1,0.7-1.5,1.1c-2.1,1.6-3.6,3.7-4.9,6c-0.9,1.7-1.8,3.3-2.7,5.1c0.8-2.3,3.4-7.3,4.9-9
				c0.9-1.1,2.1-1.9,3.1-2.9c0.3-0.2,0.6-0.3,1-0.5C170.2,61.8,170.3,61.9,170.3,61.9L170.3,61.9z"/>
			<path class="st3" d="M194,67.2c3.3,3.3,5.8,7,6.5,11.8c-0.5-1.4-1-2.8-1.6-4.1c-0.6-1.4-1.4-2.7-2.2-4
				C195.9,69.5,194.9,68.4,194,67.2L194,67.2z"/>
			<path class="st3" d="M178.9,87.2c-0.2,4.1-1.6,7.9-3.2,11.7C176.9,95,178.2,91.2,178.9,87.2z"/>
			<path class="st3" d="M155.5,74.7c-1.3,3.5-3.7,7.3-4.8,7.6C152.3,79.7,153.9,77.2,155.5,74.7z"/>
			<path class="st3" d="M182.4,115.6c-0.1-0.6,2-5.7,3.2-8C185.5,109.3,183.2,115,182.4,115.6z"/>
			<path class="st3" d="M213.9,78.6c-3.2-1.8-6.6-3.3-9.1-6.3c0.1-0.1,0.1-0.1,0.1-0.1c0,0,0.1,0,0.1,0c0.2,0.1,0.3,0.2,0.5,0.4
				c0.8,0.7,1.5,1.5,2.4,2.1C209.9,76,211.9,77.3,213.9,78.6L213.9,78.6z"/>
			<path class="st3" d="M203.7,103.5c0.6-2.7,1.1-5.4,1.6-8C205.5,98,204.7,102.6,203.7,103.5z"/>
			<path class="st3" d="M213.5,81.8c2.5,1.4,5,2.8,7.5,4.3C220,86.2,215,83.3,213.5,81.8z"/>
			<path class="st3" d="M207,75.1c1.5,1.1,2.9,2.2,4.4,3.2C210.1,77.9,207.5,76.1,207,75.1z"/>
			<path class="st3" d="M160.9,111.9l1-3.7c0,1.3-0.2,2.6-0.6,3.8C161.2,112,161,112,160.9,111.9L160.9,111.9z"/>
			<path class="st3" d="M195.5,70.9c1.1,1.2,2,2.5,2.4,4.1C197.1,73.7,196.3,72.3,195.5,70.9z"/>
		</g>
		<path class="st3" d="M178,53.5c0.1,0.4,0.3,0.8,0.4,1.2c0.5,2.1,1.9,3.6,3.8,4.4c1.6,0.7,3.3,1.3,5,1.6c4.1,0.8,7.9,2.4,11.4,4.8
			c5.3,3.6,11,6.6,16.5,9.8c1.6,0.9,3.1,1.9,4.6,3c1.6,1.1,2.9,2.5,3.9,4.1c0.3,0.5,0.6,1,0.8,1.5c0.7,1.8-0.4,3.1-2.3,2.8
			c-0.5-0.1-1-0.2-1.5-0.4c-1.6-0.5-3.2-1-4.8-1.7c-1.7-0.7-3.3-1.5-4.7-2.8c-0.1-0.1-0.3-0.2-0.7-0.5c0.2,0.5,0.2,0.8,0.4,1.1
			c1.4,3.5,2.4,7.1,2.7,10.8c0.4,4,0.2,8-1,11.9c-0.3,0.9-0.6,1.8-1.1,2.6c-1.1,1.8-3.1,2-4.6,0.5c-0.3-0.3-0.5-0.6-0.8-1
			c-1-1.3-2-2.7-3.1-4c-2.2-2.5-3.1-5.4-3.4-8.6c0-0.3-0.1-0.6-0.1-0.8c0-0.1-0.1-0.2-0.2-0.4c-0.1,1.5-0.2,2.8-0.3,4.2
			c-0.4,4.2-1.5,8.2-3.4,12c-0.9,1.9-1.9,3.7-3,5.4c-0.9,1.5-2.1,2.6-3.7,3.4c-0.9,0.5-1.9,0.8-2.9,0.8c-1.4,0-2.6-0.6-3.3-1.8
			c-1.1-2-2.2-4.1-2.5-6.4c-0.3-1.9-0.2-3.9,0.2-5.8c0-0.2,0.1-0.3-0.1-0.6c-0.2,0.4-0.4,0.7-0.6,1.1c-1.2,2.2-2.5,4.2-4.4,5.9
			c-1.5,1.3-3.1,2.3-5.1,2.6c-2.2,0.3-4.4,0-6.3-1.2c-0.8-0.5-1.5-0.7-2.5-0.5c-2.1,0.4-3.8-0.2-5.1-2c-1.9-2.7-3.1-5.6-3.5-8.9
			c-0.3-3-0.1-6,0.2-9c0.4-3.8,1.1-7.6,2.3-11.3c0-0.1,0-0.3,0-0.4c-0.1,0.1-0.2,0.1-0.3,0.2c-1.7,1.9-3.9,3.2-6.2,4.3
			c-1.9,0.9-3.7,1.8-5.6,2.5c-1.3,0.5-2.7,0.9-4.1,1.3c-0.9,0.2-1.9,0.1-2.9-0.2c-1.4-0.5-1.7-1.7-0.8-2.8c0.4-0.5,0.8-0.9,1.3-1.2
			c0.9-0.6,1.8-1.1,2.7-1.5c4.7-2,8.8-5,12.4-8.6c1.9-1.9,3.7-3.8,5.6-5.8c2.4-2.4,4.8-4.7,7.8-6.4c1.9-1.1,3.9-1.9,6.1-2.3
			c0.8-0.2,1.6-0.5,2.3-0.8c2.4-1.1,3.7-3.1,4.3-5.6c0-0.1,0.1-0.2,0.1-0.4C177.9,53.5,178,53.5,178,53.5L178,53.5z M153,98.5
			c-0.1,3.5,0.8,7.3,3,10.7c1.4,2.2,3.2,3.1,5.7,2.6c0.8-0.2,1.4,0,2.1,0.4c3.5,2.3,7.7,2,11-1c1.6-1.4,2.8-3.1,3.9-5
			c2.6-4.7,4.7-9.7,6.2-14.8c1.7-6,2.8-12.1,2.1-18.3c-0.3-2.9-1.1-5.8-2.2-8.5c-1-2.4-2.9-3.8-5.3-4.4c-2-0.5-4-0.4-5.9,0.3
			c-4.8,1.7-8.7,4.8-11.8,8.9c-3.2,4.2-5.2,9-6.6,14.1C153.7,88.3,153.2,93.1,153,98.5L153,98.5z M183.9,61.8c0,0-0.1,0.1-0.1,0.1
			c0.1,0.1,0.1,0.3,0.2,0.4c0.5,1,1.1,2.1,1.6,3.1c2.2,5.7,2.5,11.6,1.6,17.6c-0.8,5.3-2.2,10.4-4.2,15.4c-0.6,1.6-1.1,3.2-1.6,4.8
			c-1.5,4.8-0.9,9.3,1.7,13.6c0.7,1.2,1.7,1.9,3.1,1.8c1.7-0.1,3.1-0.8,4.2-2c0.9-0.9,1.8-2,2.5-3.2c4-6.5,5.9-13.7,5.8-21.3
			c-0.1-3.8-0.6-7.6-1.6-11.3c-2-7.3-5.9-13.4-11.9-18.1C184.8,62.4,184.4,62.1,183.9,61.8L183.9,61.8z M184.3,60.9
			c0,0.1-0.1,0.2-0.1,0.2c0.3,0.2,0.5,0.5,0.8,0.8c8,6,12.2,14.2,13.6,24c0.3,2.1,0.5,4.1,0.8,6.2c0.2,1.1,0.4,2.2,0.6,3.4
			c0.5,2.8,1.3,5.3,3.3,7.5c1.1,1.3,2.1,2.7,3.2,4.1c0.3,0.4,0.7,0.9,1.1,1.2c0.4,0.3,0.9,0.4,1.4,0.4c0.8,0,1.5-0.5,1.8-1.2
			c0.5-0.9,0.9-1.9,1.2-2.9c1.4-5.2,1.3-10.4,0.1-15.6c-0.9-4.2-2.6-8-4.6-11.8c-4.8-9.2-12.4-14.7-22.7-16.4
			C184.9,60.7,184.6,60.8,184.3,60.9L184.3,60.9z M170.4,61.3c0-0.1-0.1-0.2-0.1-0.3c-0.5,0.1-1.1,0.2-1.6,0.4
			c-2.5,0.9-4.8,2.1-6.8,3.9c-2.3,2.1-4.6,4.3-6.8,6.6c-4.8,5.1-10,9.7-16.6,12.3c-0.2,0.1-0.3,0.2-0.5,0.2
			c-0.6,0.4-1.2,0.8-1.8,1.2c-0.6,0.4-1.2,1-0.9,1.8c0.3,0.9,1.1,1,1.9,1.1c0,0,0.1,0,0.1,0c2,0.1,3.7-0.6,5.1-1.9
			c0.7-0.6,1.3-1.2,1.9-1.9c1.8-2,4-2.8,6.6-2.9c1.7-0.1,3.2-0.6,4.1-2.2c0.9-1.5,1.7-2.9,2.4-4.5c2.8-5.8,6.7-10.6,12.4-13.7
			C170.1,61.5,170.3,61.3,170.4,61.3L170.4,61.3z M202.6,68.7c0,0-0.1,0.1-0.1,0.1c0.1,0.1,0.2,0.3,0.3,0.4c2.5,2.7,4.5,5.7,6.1,9
			c1.1,2.1,2.7,3.6,4.7,4.8c2.4,1.4,5.1,1.9,7.6,2.9c0.5,0.2,1,0.2,1.5,0.2c1.1,0,1.6-0.7,1.4-1.8c-0.1-0.5-0.4-1-0.6-1.4
			c-1-1.7-2.3-3.1-3.9-4.2c-1.6-1.1-3.3-2.2-5-3.2c-3.8-2.2-7.7-4.4-11.5-6.6C202.9,68.8,202.8,68.7,202.6,68.7L202.6,68.7z
			 M143.1,87.1c3.1-1.5,6.5-2.4,9.4-4.7C148.5,82.4,145.4,84,143.1,87.1z"/>
	</g>
	<g>
		
			<linearGradient id="SVGID_00000052085560552835812670000002636195061913136007_" gradientUnits="userSpaceOnUse" x1="205.4081" y1="268.8861" x2="3.4781" y2="204.8661" gradientTransform="matrix(1 0 0 -1 0 260)">
			<stop  offset="0" style="stop-color:#A37B57"/>
			<stop  offset="8.000000e-02" style="stop-color:#A67E5B"/>
			<stop  offset="0.16" style="stop-color:#B08A67"/>
			<stop  offset="0.24" style="stop-color:#C19D7B"/>
			<stop  offset="0.32" style="stop-color:#D9B797"/>
			<stop  offset="0.34" style="stop-color:#DEBD9D"/>
			<stop  offset="0.6" style="stop-color:#BA8E65"/>
			<stop  offset="1" style="stop-color:#946A43"/>
		</linearGradient>
		<path style="fill:url(#SVGID_00000052085560552835812670000002636195061913136007_);" d="M67.6,29.3c0.1-0.2,0.2-0.4,0.4-0.5
			c0.1-0.1,0.2-0.1,0.3-0.2c3.8-1.7,7.6-3.4,11.4-5c3.6-1.5,7.3-2.2,11.1-2.7c3.2-0.4,6.3-0.5,9.5-0.5c7.8,0,15.6,0.1,23.4,0
			c2.9,0,5.8-0.4,8.7-0.7c5-0.5,9.9-1.6,14.8-3c8.2-2.3,15.6-6.1,22.7-10.7c5.1-3.4,10.1-7.2,14.9-11c0.4-0.3,0.7-0.7,1.3-0.5
			c-0.1,0.1-0.2,0.3-0.3,0.3c-6.6,5.3-13.3,10.5-20.6,14.8c-7.4,4.4-15.3,7.4-23.8,9.2c-3.8,0.8-7.7,1.5-11.6,1.9
			c-4.9,0.5-9.8,0.5-14.7,0.4c-5.7,0-11.4-0.1-17.2,0C90,21,82.4,22.4,75.3,25.9c-2.1,1.1-4.4,1.9-6.6,2.9c-0.3,0.1-0.6,0.4-0.9,0.6
			C67.7,29.4,67.7,29.3,67.6,29.3L67.6,29.3z"/>
		<g>
			
				<linearGradient id="SVGID_00000116212770384196305650000008009133070302133120_" gradientUnits="userSpaceOnUse" x1="202.6117" y1="277.7045" x2="0.6817" y2="213.6845" gradientTransform="matrix(1 0 0 -1 0 260)">
				<stop  offset="0" style="stop-color:#A37B57"/>
				<stop  offset="8.000000e-02" style="stop-color:#A67E5B"/>
				<stop  offset="0.16" style="stop-color:#B08A67"/>
				<stop  offset="0.24" style="stop-color:#C19D7B"/>
				<stop  offset="0.32" style="stop-color:#D9B797"/>
				<stop  offset="0.34" style="stop-color:#DEBD9D"/>
				<stop  offset="0.6" style="stop-color:#BA8E65"/>
				<stop  offset="1" style="stop-color:#946A43"/>
			</linearGradient>
			<path style="fill:url(#SVGID_00000116212770384196305650000008009133070302133120_);" d="M24.6,41.8c10-9.5,21.7-15.1,35.7-14.9
				C46.5,27.1,34.8,32.8,24.6,41.8z"/>
			
				<linearGradient id="SVGID_00000090278850706262271650000018171061878403457979_" gradientUnits="userSpaceOnUse" x1="211.1795" y1="250.6716" x2="9.2495" y2="186.6416" gradientTransform="matrix(1 0 0 -1 0 260)">
				<stop  offset="0" style="stop-color:#A37B57"/>
				<stop  offset="8.000000e-02" style="stop-color:#A67E5B"/>
				<stop  offset="0.16" style="stop-color:#B08A67"/>
				<stop  offset="0.24" style="stop-color:#C19D7B"/>
				<stop  offset="0.32" style="stop-color:#D9B797"/>
				<stop  offset="0.34" style="stop-color:#DEBD9D"/>
				<stop  offset="0.6" style="stop-color:#BA8E65"/>
				<stop  offset="1" style="stop-color:#946A43"/>
			</linearGradient>
			<path style="fill:url(#SVGID_00000090278850706262271650000018171061878403457979_);" d="M70.3,39.6c0.4,2,0.4,4,0.2,5.8
				c-0.2,2.3-0.9,4.5-1.8,6.7c-1.9,4.7-4.7,8.9-8.1,12.7c-3.3,3.7-6.8,7-10.8,9.9c-0.4,0.3-0.8,0.6-1.3,0.7c0.3-0.2,0.7-0.5,1-0.8
				c5.4-4.1,10.3-8.8,14.3-14.4c2.6-3.6,4.7-7.5,5.8-11.8c0.6-2.5,1.2-5,0.8-7.5C70.2,40.5,70.3,40.1,70.3,39.6z"/>
			
				<linearGradient id="SVGID_00000080194281770707985060000005863813845356192412_" gradientUnits="userSpaceOnUse" x1="207.601" y1="261.9669" x2="5.671" y2="197.9469" gradientTransform="matrix(1 0 0 -1 0 260)">
				<stop  offset="0" style="stop-color:#A37B57"/>
				<stop  offset="8.000000e-02" style="stop-color:#A67E5B"/>
				<stop  offset="0.16" style="stop-color:#B08A67"/>
				<stop  offset="0.24" style="stop-color:#C19D7B"/>
				<stop  offset="0.32" style="stop-color:#D9B797"/>
				<stop  offset="0.34" style="stop-color:#DEBD9D"/>
				<stop  offset="0.6" style="stop-color:#BA8E65"/>
				<stop  offset="1" style="stop-color:#946A43"/>
			</linearGradient>
			<path style="fill:url(#SVGID_00000080194281770707985060000005863813845356192412_);" d="M33.8,60.5c1.5-0.8,3-1.5,4.6-2.3
				c6.8-3.5,13-7.9,18.6-13.1c2.7-2.5,4.9-5.3,6.9-8.3c0.2-0.3,0.4-0.6,0.7-0.9c-0.1,0.2-0.2,0.4-0.3,0.6c-2.4,4.2-5.6,7.8-9.3,10.9
				c-6.2,5.4-13.1,9.7-20.6,13C34.3,60.5,34.1,60.5,33.8,60.5C33.9,60.6,33.8,60.5,33.8,60.5L33.8,60.5z"/>
			
				<linearGradient id="SVGID_00000021819977133741481140000000390556013159090096_" gradientUnits="userSpaceOnUse" x1="210.7542" y1="252.0168" x2="8.8242" y2="187.9868" gradientTransform="matrix(1 0 0 -1 0 260)">
				<stop  offset="0" style="stop-color:#A37B57"/>
				<stop  offset="8.000000e-02" style="stop-color:#A67E5B"/>
				<stop  offset="0.16" style="stop-color:#B08A67"/>
				<stop  offset="0.24" style="stop-color:#C19D7B"/>
				<stop  offset="0.32" style="stop-color:#D9B797"/>
				<stop  offset="0.34" style="stop-color:#DEBD9D"/>
				<stop  offset="0.6" style="stop-color:#BA8E65"/>
				<stop  offset="1" style="stop-color:#946A43"/>
			</linearGradient>
			<path style="fill:url(#SVGID_00000021819977133741481140000000390556013159090096_);" d="M68.5,44.1c-0.1,0.3-0.3,0.7-0.4,1
				c-1.4,3.9-3.6,7.4-6.4,10.5c-3.5,4-7.3,7.7-11.7,10.7c-1.7,1.1-3.4,2.2-5.1,3.2c-0.2,0.1-0.5,0.3-0.8,0.3
				c0.2-0.2,0.5-0.3,0.8-0.5C51,65.6,56.4,61,61.1,55.7c2.9-3.3,5.4-6.8,6.9-10.9c0.1-0.2,0.2-0.5,0.3-0.7
				C68.4,44.1,68.4,44.1,68.5,44.1L68.5,44.1z"/>
			
				<linearGradient id="SVGID_00000172422109797484501130000012761312627503690129_" gradientUnits="userSpaceOnUse" x1="203.979" y1="273.3932" x2="2.049" y2="209.3632" gradientTransform="matrix(1 0 0 -1 0 260)">
				<stop  offset="0" style="stop-color:#A37B57"/>
				<stop  offset="8.000000e-02" style="stop-color:#A67E5B"/>
				<stop  offset="0.16" style="stop-color:#B08A67"/>
				<stop  offset="0.24" style="stop-color:#C19D7B"/>
				<stop  offset="0.32" style="stop-color:#D9B797"/>
				<stop  offset="0.34" style="stop-color:#DEBD9D"/>
				<stop  offset="0.6" style="stop-color:#BA8E65"/>
				<stop  offset="1" style="stop-color:#946A43"/>
			</linearGradient>
			<path style="fill:url(#SVGID_00000172422109797484501130000012761312627503690129_);" d="M18.4,51.2c5.8-8.6,13.7-14.5,23-18.7
				C32.4,37.1,24.5,43,18.4,51.2z"/>
			
				<linearGradient id="SVGID_00000039101167679574259190000007898510078484861601_" gradientUnits="userSpaceOnUse" x1="205.172" y1="269.6437" x2="3.232" y2="205.6237" gradientTransform="matrix(1 0 0 -1 0 260)">
				<stop  offset="0" style="stop-color:#A37B57"/>
				<stop  offset="8.000000e-02" style="stop-color:#A67E5B"/>
				<stop  offset="0.16" style="stop-color:#B08A67"/>
				<stop  offset="0.24" style="stop-color:#C19D7B"/>
				<stop  offset="0.32" style="stop-color:#D9B797"/>
				<stop  offset="0.34" style="stop-color:#DEBD9D"/>
				<stop  offset="0.6" style="stop-color:#BA8E65"/>
				<stop  offset="1" style="stop-color:#946A43"/>
			</linearGradient>
			<path style="fill:url(#SVGID_00000039101167679574259190000007898510078484861601_);" d="M32.5,47.5c1.4-1.6,15-9.5,18.7-10.8
				C45,40.3,38.8,43.9,32.5,47.5z"/>
			
				<linearGradient id="SVGID_00000013875122964303789040000012461542828394439840_" gradientUnits="userSpaceOnUse" x1="212.0233" y1="248.0297" x2="10.0833" y2="184.0097" gradientTransform="matrix(1 0 0 -1 0 260)">
				<stop  offset="0" style="stop-color:#A37B57"/>
				<stop  offset="8.000000e-02" style="stop-color:#A67E5B"/>
				<stop  offset="0.16" style="stop-color:#B08A67"/>
				<stop  offset="0.24" style="stop-color:#C19D7B"/>
				<stop  offset="0.32" style="stop-color:#D9B797"/>
				<stop  offset="0.34" style="stop-color:#DEBD9D"/>
				<stop  offset="0.6" style="stop-color:#BA8E65"/>
				<stop  offset="1" style="stop-color:#946A43"/>
			</linearGradient>
			<path style="fill:url(#SVGID_00000013875122964303789040000012461542828394439840_);" d="M39.5,65.3c-3.2,2.6-14.7,8-17.4,8
				c0-0.5,0.5-0.5,0.7-0.6c2.3-0.9,4.7-1.7,6.9-2.7C33.2,68.5,36.4,66.8,39.5,65.3z"/>
			
				<linearGradient id="SVGID_00000041295898773293754640000008663680173834657203_" gradientUnits="userSpaceOnUse" x1="207.6784" y1="261.735" x2="5.7484" y2="197.705" gradientTransform="matrix(1 0 0 -1 0 260)">
				<stop  offset="0" style="stop-color:#A37B57"/>
				<stop  offset="8.000000e-02" style="stop-color:#A67E5B"/>
				<stop  offset="0.16" style="stop-color:#B08A67"/>
				<stop  offset="0.24" style="stop-color:#C19D7B"/>
				<stop  offset="0.32" style="stop-color:#D9B797"/>
				<stop  offset="0.34" style="stop-color:#DEBD9D"/>
				<stop  offset="0.6" style="stop-color:#BA8E65"/>
				<stop  offset="1" style="stop-color:#946A43"/>
			</linearGradient>
			<path style="fill:url(#SVGID_00000041295898773293754640000008663680173834657203_);" d="M67.3,35.9c-2.9,7.5-8,13.3-14.2,18.3
				L52.9,54c0.3-0.2,0.6-0.5,0.8-0.8c3.9-3.3,7.3-7.1,10.2-11.4C65.2,40,66.3,38,67.3,35.9z"/>
			
				<linearGradient id="SVGID_00000018215163913991715130000000845670577723591840_" gradientUnits="userSpaceOnUse" x1="200.7511" y1="283.5666" x2="-1.1789" y2="219.5366" gradientTransform="matrix(1 0 0 -1 0 260)">
				<stop  offset="0" style="stop-color:#A37B57"/>
				<stop  offset="8.000000e-02" style="stop-color:#A67E5B"/>
				<stop  offset="0.16" style="stop-color:#B08A67"/>
				<stop  offset="0.24" style="stop-color:#C19D7B"/>
				<stop  offset="0.32" style="stop-color:#D9B797"/>
				<stop  offset="0.34" style="stop-color:#DEBD9D"/>
				<stop  offset="0.6" style="stop-color:#BA8E65"/>
				<stop  offset="1" style="stop-color:#946A43"/>
			</linearGradient>
			<path style="fill:url(#SVGID_00000018215163913991715130000000845670577723591840_);" d="M29,29.6c6.3-2.6,12.8-3.8,19.5-3.8
				c0,0.1,0,0.1,0,0.2c-1.3,0.1-2.6,0.2-3.8,0.3c-1.3,0.1-2.7,0.2-4,0.4c-1.3,0.2-2.7,0.4-4,0.7c-1.3,0.3-2.6,0.6-3.9,1
				C31.6,28.9,30.3,29.3,29,29.6L29,29.6z"/>
			
				<linearGradient id="SVGID_00000053538994945245627710000008533279768933162663_" gradientUnits="userSpaceOnUse" x1="208.2965" y1="259.7912" x2="6.3565" y2="195.7612" gradientTransform="matrix(1 0 0 -1 0 260)">
				<stop  offset="0" style="stop-color:#A37B57"/>
				<stop  offset="8.000000e-02" style="stop-color:#A67E5B"/>
				<stop  offset="0.16" style="stop-color:#B08A67"/>
				<stop  offset="0.24" style="stop-color:#C19D7B"/>
				<stop  offset="0.32" style="stop-color:#D9B797"/>
				<stop  offset="0.34" style="stop-color:#DEBD9D"/>
				<stop  offset="0.6" style="stop-color:#BA8E65"/>
				<stop  offset="1" style="stop-color:#946A43"/>
			</linearGradient>
			<path style="fill:url(#SVGID_00000053538994945245627710000008533279768933162663_);" d="M31.1,55.4c-3.7,1.9-7.4,3.8-11.2,5.8
				c0.1-0.3,0.1-0.5,0.2-0.6c0.5-0.4,1-0.8,1.6-1c3-1.4,6.1-2.8,9.2-4.3c0,0,0.1,0,0.2,0C31.1,55.3,31.1,55.4,31.1,55.4L31.1,55.4z"
				/>
			
				<linearGradient id="SVGID_00000060749504483506158790000014310684672508727723_" gradientUnits="userSpaceOnUse" x1="214.2804" y1="240.8987" x2="12.3504" y2="176.8687" gradientTransform="matrix(1 0 0 -1 0 260)">
				<stop  offset="0" style="stop-color:#A37B57"/>
				<stop  offset="8.000000e-02" style="stop-color:#A67E5B"/>
				<stop  offset="0.16" style="stop-color:#B08A67"/>
				<stop  offset="0.24" style="stop-color:#C19D7B"/>
				<stop  offset="0.32" style="stop-color:#D9B797"/>
				<stop  offset="0.34" style="stop-color:#DEBD9D"/>
				<stop  offset="0.6" style="stop-color:#BA8E65"/>
				<stop  offset="1" style="stop-color:#946A43"/>
			</linearGradient>
			<path style="fill:url(#SVGID_00000060749504483506158790000014310684672508727723_);" d="M60.2,73.5c1.5-4.4,2.8-8.8,5-12.9
				c0.1,0,0.2,0.1,0.2,0.1c-0.9,2.1-1.8,4.2-2.7,6.4c-0.8,2.2-1.6,4.3-2.4,6.5C60.4,73.6,60.3,73.5,60.2,73.5L60.2,73.5z"/>
			
				<linearGradient id="SVGID_00000142867349851797215610000007592912659711183003_" gradientUnits="userSpaceOnUse" x1="198.6698" y1="290.1406" x2="-3.2602" y2="226.1206" gradientTransform="matrix(1 0 0 -1 0 260)">
				<stop  offset="0" style="stop-color:#A37B57"/>
				<stop  offset="8.000000e-02" style="stop-color:#A67E5B"/>
				<stop  offset="0.16" style="stop-color:#B08A67"/>
				<stop  offset="0.24" style="stop-color:#C19D7B"/>
				<stop  offset="0.32" style="stop-color:#D9B797"/>
				<stop  offset="0.34" style="stop-color:#DEBD9D"/>
				<stop  offset="0.6" style="stop-color:#BA8E65"/>
				<stop  offset="1" style="stop-color:#946A43"/>
			</linearGradient>
			<path style="fill:url(#SVGID_00000142867349851797215610000007592912659711183003_);" d="M40,23.9c-5.1,0.8-9.7-0.8-14.1-3
				c2.3,0.8,4.6,1.6,7,2.3C35.2,23.9,37.7,23.7,40,23.9z"/>
			
				<linearGradient id="SVGID_00000140014091510709785370000016079427759604991676_" gradientUnits="userSpaceOnUse" x1="212.5611" y1="246.3367" x2="10.6211" y2="182.3067" gradientTransform="matrix(1 0 0 -1 0 260)">
				<stop  offset="0" style="stop-color:#A37B57"/>
				<stop  offset="8.000000e-02" style="stop-color:#A67E5B"/>
				<stop  offset="0.16" style="stop-color:#B08A67"/>
				<stop  offset="0.24" style="stop-color:#C19D7B"/>
				<stop  offset="0.32" style="stop-color:#D9B797"/>
				<stop  offset="0.34" style="stop-color:#DEBD9D"/>
				<stop  offset="0.6" style="stop-color:#BA8E65"/>
				<stop  offset="1" style="stop-color:#946A43"/>
			</linearGradient>
			<path style="fill:url(#SVGID_00000140014091510709785370000016079427759604991676_);" d="M16.4,71.2c0.1,0.1,0.2,0.3,0.3,0.4
				c0.5,1.2,1.2,2.1,2.1,2.9c1.5,1.3,2.9,2.5,4.5,3.9c-0.2-0.1-0.4-0.2-0.6-0.2c-2-1.2-3.7-2.6-5.2-4.3c-0.5-0.6-0.8-1.3-1.2-1.9
				c-0.1-0.2-0.1-0.4-0.1-0.7C16.2,71.2,16.3,71.2,16.4,71.2L16.4,71.2z"/>
			
				<linearGradient id="SVGID_00000159440972643233248050000008891788616004821386_" gradientUnits="userSpaceOnUse" x1="215.7202" y1="236.3694" x2="13.7902" y2="172.3494" gradientTransform="matrix(1 0 0 -1 0 260)">
				<stop  offset="0" style="stop-color:#A37B57"/>
				<stop  offset="8.000000e-02" style="stop-color:#A67E5B"/>
				<stop  offset="0.16" style="stop-color:#B08A67"/>
				<stop  offset="0.24" style="stop-color:#C19D7B"/>
				<stop  offset="0.32" style="stop-color:#D9B797"/>
				<stop  offset="0.34" style="stop-color:#DEBD9D"/>
				<stop  offset="0.6" style="stop-color:#BA8E65"/>
				<stop  offset="1" style="stop-color:#946A43"/>
			</linearGradient>
			<path style="fill:url(#SVGID_00000159440972643233248050000008891788616004821386_);" d="M40.5,78.6c-2.9,1.7-5.9,3-9,4.2
				c0-0.1-0.1-0.2-0.1-0.4C34.3,81,37.4,79.9,40.5,78.6z"/>
			
				<linearGradient id="SVGID_00000015340588963969808970000002478780264449492154_" gradientUnits="userSpaceOnUse" x1="197.46" y1="293.9401" x2="-4.47" y2="229.9101" gradientTransform="matrix(1 0 0 -1 0 260)">
				<stop  offset="0" style="stop-color:#A37B57"/>
				<stop  offset="8.000000e-02" style="stop-color:#A67E5B"/>
				<stop  offset="0.16" style="stop-color:#B08A67"/>
				<stop  offset="0.24" style="stop-color:#C19D7B"/>
				<stop  offset="0.32" style="stop-color:#D9B797"/>
				<stop  offset="0.34" style="stop-color:#DEBD9D"/>
				<stop  offset="0.6" style="stop-color:#BA8E65"/>
				<stop  offset="1" style="stop-color:#946A43"/>
			</linearGradient>
			<path style="fill:url(#SVGID_00000015340588963969808970000002478780264449492154_);" d="M27.2,23.4c-1.5-0.7-3-1.3-4.5-2
				c-0.8-0.4-1.4-1-2.1-1.5c-0.2-0.2-0.4-0.5-0.5-0.8c0,0,0.1-0.1,0.2-0.1c0.1,0.1,0.2,0.1,0.3,0.2c0.8,1,1.8,1.7,2.9,2.2
				c1.3,0.6,2.6,1.3,4,1.9C27.3,23.3,27.3,23.3,27.2,23.4z"/>
			
				<linearGradient id="SVGID_00000008838365313785794170000009649698541739256195_" gradientUnits="userSpaceOnUse" x1="204.6195" y1="271.3817" x2="2.6795" y2="207.3617" gradientTransform="matrix(1 0 0 -1 0 260)">
				<stop  offset="0" style="stop-color:#A37B57"/>
				<stop  offset="8.000000e-02" style="stop-color:#A67E5B"/>
				<stop  offset="0.16" style="stop-color:#B08A67"/>
				<stop  offset="0.24" style="stop-color:#C19D7B"/>
				<stop  offset="0.32" style="stop-color:#D9B797"/>
				<stop  offset="0.34" style="stop-color:#DEBD9D"/>
				<stop  offset="0.6" style="stop-color:#BA8E65"/>
				<stop  offset="1" style="stop-color:#946A43"/>
			</linearGradient>
			<path style="fill:url(#SVGID_00000008838365313785794170000009649698541739256195_);" d="M38.3,42.1c2.2-1.5,4.5-2.8,7-3.9
				c-2.3,1.3-4.6,2.7-6.8,4C38.4,42.2,38.3,42.1,38.3,42.1z"/>
			
				<linearGradient id="SVGID_00000118363224998293039850000006258895500040741045_" gradientUnits="userSpaceOnUse" x1="212.0379" y1="247.9765" x2="10.1079" y2="183.9465" gradientTransform="matrix(1 0 0 -1 0 260)">
				<stop  offset="0" style="stop-color:#A37B57"/>
				<stop  offset="8.000000e-02" style="stop-color:#A67E5B"/>
				<stop  offset="0.16" style="stop-color:#B08A67"/>
				<stop  offset="0.24" style="stop-color:#C19D7B"/>
				<stop  offset="0.32" style="stop-color:#D9B797"/>
				<stop  offset="0.34" style="stop-color:#DEBD9D"/>
				<stop  offset="0.6" style="stop-color:#BA8E65"/>
				<stop  offset="1" style="stop-color:#946A43"/>
			</linearGradient>
			<path style="fill:url(#SVGID_00000118363224998293039850000006258895500040741045_);" d="M15.1,71.6c0.9,1.7,2.2,3.2,3.6,4.6
				C16.9,75.2,15.1,72.9,15.1,71.6z"/>
			
				<linearGradient id="SVGID_00000172436945117955851870000014837261859477294516_" gradientUnits="userSpaceOnUse" x1="214.2998" y1="240.8406" x2="12.3698" y2="176.8106" gradientTransform="matrix(1 0 0 -1 0 260)">
				<stop  offset="0" style="stop-color:#A37B57"/>
				<stop  offset="8.000000e-02" style="stop-color:#A67E5B"/>
				<stop  offset="0.16" style="stop-color:#B08A67"/>
				<stop  offset="0.24" style="stop-color:#C19D7B"/>
				<stop  offset="0.32" style="stop-color:#D9B797"/>
				<stop  offset="0.34" style="stop-color:#DEBD9D"/>
				<stop  offset="0.6" style="stop-color:#BA8E65"/>
				<stop  offset="1" style="stop-color:#946A43"/>
			</linearGradient>
			<path style="fill:url(#SVGID_00000172436945117955851870000014837261859477294516_);" d="M60.3,70.4c0.6-2,1.2-3.9,2.3-5.6
				C62,66.8,61.2,68.6,60.3,70.4z"/>
			
				<linearGradient id="SVGID_00000055703442248466873440000010172614684966414255_" gradientUnits="userSpaceOnUse" x1="206.6795" y1="264.8716" x2="4.7495" y2="200.8515" gradientTransform="matrix(1 0 0 -1 0 260)">
				<stop  offset="0" style="stop-color:#A37B57"/>
				<stop  offset="8.000000e-02" style="stop-color:#A67E5B"/>
				<stop  offset="0.16" style="stop-color:#B08A67"/>
				<stop  offset="0.24" style="stop-color:#C19D7B"/>
				<stop  offset="0.32" style="stop-color:#D9B797"/>
				<stop  offset="0.34" style="stop-color:#DEBD9D"/>
				<stop  offset="0.6" style="stop-color:#BA8E65"/>
				<stop  offset="1" style="stop-color:#946A43"/>
			</linearGradient>
			<path style="fill:url(#SVGID_00000055703442248466873440000010172614684966414255_);" d="M11.1,54.4c0.5,1.8,0.7,3.5,1.7,4.9
				c-0.6,0.2-0.9-0.2-1-0.6c-0.3-0.9-0.6-1.9-0.8-2.8C11.1,55.5,11.1,55,11.1,54.4L11.1,54.4z"/>
			
				<linearGradient id="SVGID_00000118380862745086432690000003088991937856894896_" gradientUnits="userSpaceOnUse" x1="216.0885" y1="235.2147" x2="14.1585" y2="171.1847" gradientTransform="matrix(1 0 0 -1 0 260)">
				<stop  offset="0" style="stop-color:#A37B57"/>
				<stop  offset="8.000000e-02" style="stop-color:#A67E5B"/>
				<stop  offset="0.16" style="stop-color:#B08A67"/>
				<stop  offset="0.24" style="stop-color:#C19D7B"/>
				<stop  offset="0.32" style="stop-color:#D9B797"/>
				<stop  offset="0.34" style="stop-color:#DEBD9D"/>
				<stop  offset="0.6" style="stop-color:#BA8E65"/>
				<stop  offset="1" style="stop-color:#946A43"/>
			</linearGradient>
			<path style="fill:url(#SVGID_00000118380862745086432690000003088991937856894896_);" d="M30.9,83.5c1.7-0.7,3.4-1.3,5.1-2
				c-1.6,1-3.2,1.7-5,2.3C31,83.8,30.9,83.5,30.9,83.5z"/>
			
				<linearGradient id="SVGID_00000162338159793685488490000018081466989084490397_" gradientUnits="userSpaceOnUse" x1="212.7712" y1="245.6764" x2="10.8312" y2="181.6564" gradientTransform="matrix(1 0 0 -1 0 260)">
				<stop  offset="0" style="stop-color:#A37B57"/>
				<stop  offset="8.000000e-02" style="stop-color:#A67E5B"/>
				<stop  offset="0.16" style="stop-color:#B08A67"/>
				<stop  offset="0.24" style="stop-color:#C19D7B"/>
				<stop  offset="0.32" style="stop-color:#D9B797"/>
				<stop  offset="0.34" style="stop-color:#DEBD9D"/>
				<stop  offset="0.6" style="stop-color:#BA8E65"/>
				<stop  offset="1" style="stop-color:#946A43"/>
			</linearGradient>
			<path style="fill:url(#SVGID_00000162338159793685488490000018081466989084490397_);" d="M27,73.2c-1.2,0.7-2.5,1.1-3.8,1.3
				C24.3,73.7,25.7,73.6,27,73.2z"/>
		</g>
		
			<linearGradient id="SVGID_00000181805778455986311860000017155345732013497522_" gradientUnits="userSpaceOnUse" x1="208.0258" y1="260.6317" x2="6.0958" y2="196.6016" gradientTransform="matrix(1 0 0 -1 0 260)">
			<stop  offset="0" style="stop-color:#A37B57"/>
			<stop  offset="8.000000e-02" style="stop-color:#A67E5B"/>
			<stop  offset="0.16" style="stop-color:#B08A67"/>
			<stop  offset="0.24" style="stop-color:#C19D7B"/>
			<stop  offset="0.32" style="stop-color:#D9B797"/>
			<stop  offset="0.34" style="stop-color:#DEBD9D"/>
			<stop  offset="0.6" style="stop-color:#BA8E65"/>
			<stop  offset="1" style="stop-color:#946A43"/>
		</linearGradient>
		<path style="fill:url(#SVGID_00000181805778455986311860000017155345732013497522_);" d="M57.8,71.6c-0.3,0.3-0.6,0.7-1,1.1
			c-3.9,4.2-8.2,7.8-13.1,10.7c-2.7,1.5-5.4,2.8-8.4,3.6c-1,0.2-2,0.4-3.1,0.1c-1.4-0.4-2-1.6-1.6-3c0.3-1.1,0.8-2.1,0.6-3.3
			c-0.4,0.1-0.9,0.2-1.3,0.1c-4.5-0.2-8.9-1-13-3.1c-0.2-0.1-0.4-0.3-0.7-0.4c-1.9-1.3-2.4-2.3-2.4-4.5c-0.9-0.5-1.7-1-2.5-1.6
			c-1.5-1-2.2-2.4-2.1-4.2c0-0.6-0.1-1.3-0.2-1.9c-0.3-1.7-0.4-3.3,0.6-4.8c-2-2.6-2-5.5-1-8.3c0.8-2.4,2.2-4.5,3.9-6.4
			c1.9-2.2,4.1-4.2,6.4-6.1c0.6-0.5,1.1-1,1.6-1.5c1.4-1.4,3-2.4,4.6-3.4c1.3-0.8,2.6-1.5,3.9-2.2c0.3-0.2,0.5-0.3,0.7-0.6
			c-0.3,0.1-0.6,0.2-0.9,0.3c-1.6,0.8-3.2,1.5-4.8,2.3c-1.5,0.7-3,1.5-4.6,2.2c-2.4,1-4.4,2.4-6.2,4.3c-1,1-2.1,1.9-3.1,2.8
			c-0.6,0.5-1.4,0.8-2.2,0.7c-0.9,0-1.3-0.5-1.3-1.4c0-0.9,0.3-1.8,0.8-2.5c0.7-1,1.4-2,2.3-2.8c3.2-3.3,7-5.7,10.9-7.8
			c2.6-1.4,5.4-2.6,8.3-3.6c0.3-0.1,0.6-0.2,1.1-0.4c-0.5-0.1-0.8-0.2-1.1-0.3c-3.9-1.1-7.1-3.1-9.1-6.8c-0.9-1.6-2.1-2.9-3.2-4.4
			c-0.4-0.6-0.8-1.2-1-1.8c-0.4-1.1,0.2-2.1,1.4-2.4c0.9-0.3,1.8-0.1,2.6,0.1c1.6,0.3,3.1,1.1,4.5,2.1c4.4,3.2,9.2,5.6,14.2,7.5
			c4,1.6,8.2,2.8,12.4,3.9c3.1,0.9,6.2,1.6,9.3,2.5c0.9,0.2,1.7,0.6,2.6,1c3.1,1.2,6.3,1.4,9.4-0.1c1-0.5,1.5-0.6,2.3-0.5
			c-0.2,0.2-0.3,0.3-0.4,0.4c-2.5,1.5-3.4,3.9-3.6,6.6c-0.1,2.1,0.1,4.1,0.5,6.2c0.4,2.6,0.5,5.3,0.2,7.9c-0.6,5.1-2,10-3.4,15
			c-1.4,5.1-2.7,10.2-3.7,15.3c-0.4,2.1-0.6,4.3-0.9,6.4c-0.3,2.8-0.6,5.5-1,8.3c-0.2,1.6-1,3-2.4,3.8c-0.8,0.4-1.3,0.5-1.8,0
			c-0.2-0.2-0.4-0.5-0.5-0.8c-0.2-0.9-0.5-1.8-0.5-2.7c-0.1-1.4,0-2.9,0-4.3c0-1.7-0.3-3.4-0.6-5.1c-0.7-3.8-0.1-7.4,1.5-10.9
			c0.1-0.3,0.2-0.5,0.4-0.8C57.9,71.7,57.8,71.7,57.8,71.6L57.8,71.6z M69.3,38.3c0.1-1.2-0.4-2.8-1.1-4.5c-1-2.5-2.8-3.7-5.5-3.8
			c-2.2-0.1-4.4,0.3-6.5,0.9c-5.8,1.7-11.4,4.1-16.8,6.9c-4.2,2.2-8.3,4.8-12,7.9c-1.7,1.4-3.3,2.9-4.5,4.8c-1.7,2.9-2.6,6-2.7,9.4
			c0,1.9-0.1,3.8-0.2,5.6c0,1.1,0,2.3,0.2,3.3c1.1,4.9,5.5,8.8,11.7,8.1c2.5-0.3,5-1,7.4-1.8c12.2-4.4,21.1-12.6,27-24.1
			C68.3,47.3,69.2,43.2,69.3,38.3L69.3,38.3z M20.4,54.9c0.1-0.2,0.2-0.5,0.2-0.7c0.9-2.9,2.5-5.4,4.7-7.4c1.1-1,2.2-2,3.4-2.9
			c4.7-3.6,9.7-6.6,15.1-9c5.2-2.3,10.5-4.5,16.3-5.5c0.4-0.1,0.7-0.2,1.1-0.4c0.8-0.5,0.8-1.1,0-1.5c-0.4-0.3-0.9-0.4-1.4-0.5
			c-1.8-0.2-3.7-0.4-5.5-0.6c-2.6-0.3-5.2,0-7.7,0.3c-3.3,0.5-6.5,1.4-9.7,2.6c-4.9,1.9-9.5,4.3-13.8,7.2c-1.5,1-2.7,2.2-3.7,3.6
			c-0.8,1-1.6,2-2.4,3c-0.8,0.9-1.6,1.8-2.4,2.8c-0.8,1-1.4,2-1.5,3.3c-0.1,1.2-0.3,2.5-0.4,3.7c-0.1,2,0.6,2.8,2.6,3.1
			c0.2,0,0.4,0,0.7,0C17.6,56,19,55.6,20.4,54.9L20.4,54.9z M70.2,39.7c-0.1,0-0.2,0-0.3,0c0,0.1-0.1,0.2-0.1,0.4
			c-0.1,2.2-0.5,4.4-1.1,6.5c-1.2,4.2-3.2,8-5.8,11.5c-6.4,8.9-14.7,15.2-25.3,18.4c-2.1,0.6-3.8,1.8-5.2,3.4
			c-0.4,0.4-0.6,1.1-0.8,1.7c-0.3,0.8-0.4,1.7-0.6,2.6c-0.3,1.2,0.1,2.1,1.3,2.4c0.9,0.3,1.8,0.1,2.7-0.1c3.8-1,7.2-2.7,10.4-4.8
			c9.3-6.3,16.4-14.4,21.6-24.3c2.4-4.6,3.6-9.6,3.4-14.9C70.4,41.5,70.2,40.6,70.2,39.7L70.2,39.7z M48.8,23.9c0,0,0-0.1,0-0.1
			c-0.6-0.1-1.3-0.3-1.9-0.5c-2.8-0.6-5.7-0.5-8.5-0.8c-1.7-0.2-3.4-0.2-5-0.6c-4-1-7.6-2.8-10.1-6.2c-0.5-0.8-1.1-1.5-1.6-2.2
			c-0.5-0.6-1-1.3-1.5-1.9c-0.5-0.6-1.1-1-1.9-1.2c-0.8-0.2-1.5,0-2,0.6c-0.6,0.6-0.3,1.2,0,1.9c0.2,0.4,0.4,0.7,0.7,1
			c1.3,1.9,2.6,3.7,3.9,5.5c0.9,1.3,1.9,2.4,3.2,3.3c1.6,1.1,3.4,1.8,5.2,2.4c0.9,0.3,1.8,0.4,2.7,0.2c2.4-0.6,4.9-1.1,7.4-1.3
			c1.7-0.1,3.4-0.2,5.2-0.2C45.9,23.7,47.4,23.8,48.8,23.9z M17.3,36.6c0,0.1,0.1,0.1,0.1,0.2c1.8-0.8,3.5-1.6,5.3-2.4
			c2.5-1.2,5-2.4,7.6-3.5c1.6-0.7,3.4-1,5-1.6c4-1.6,8.1-2.8,12.4-3.3c2.2-0.2,4.3-0.5,6.5-0.2c1,0.1,2,0.1,3.2,0.2
			c-0.3-0.1-0.5-0.2-0.7-0.3c-3.1-0.8-6.3-1.2-9.5-1.4c-1.8-0.1-3.5-0.1-5.2-0.1c-1.9,0.1-3.7,0.4-5.4,1c-5.1,1.7-9.7,4.3-14.2,7.3
			C20.5,33.7,18.9,35.1,17.3,36.6L17.3,36.6z M65.4,67.8c-0.1,0-0.1,0-0.2,0c-0.1,0.2-0.2,0.4-0.3,0.6c-1.2,2.5-2.2,5.1-3.7,7.5
			c-3.2,5.3-4.2,11.1-4.2,17.2c0,0.8,0.2,1.6,0.5,2.3c0.3,0.9,0.9,1.1,1.6,0.5c0.5-0.4,1.1-0.9,1.4-1.5c0.4-0.9,0.8-2,0.9-3
			c0.4-2.8,0.7-5.6,1-8.4c0.4-3.6,1-7.2,1.9-10.7C64.8,70.7,65.1,69.2,65.4,67.8L65.4,67.8z M11.7,60.5c0.4,0.4,0.6,0.6,0.8,0.9
			c1,0.8,1.6,1.9,1.8,3.2c0.1,0.9,0.1,1.9,0,2.8c-0.1,0.8-0.3,1.6-0.4,2.4c-0.1,0.7,0,1.3,0.5,1.8c1.9-1,3.9-1.1,6-0.3
			c-0.1-0.4-0.2-0.6-0.3-0.8c-0.4-1.2-0.7-2.4-0.6-3.7c0.1-2.7,0.1-5.5,0.2-8.2c0-0.3,0.1-0.6,0.1-0.8c0.1-0.7,0.2-1.4,0.3-2.1
			c-1.2,0.3-2.3,0.6-3.4,0.9c-0.8,1-1.6,1.9-2.7,2.4C13.3,59.4,12.5,59.9,11.7,60.5L11.7,60.5z M34.3,77.4c-1.4,0.1-2.6,0.2-3.9,0.3
			c-3.8,0.1-6.7-1.6-8.9-4.6c-0.5-0.7-1.1-1.1-2-1.4c-1.4-0.5-2.7-0.3-4,0.1c-1,0.3-1.4,1.2-1.3,2.2c0.1,0.9,0.5,1.8,1.3,2.3
			c0.8,0.6,1.7,1.2,2.6,1.6c3.5,1.7,7.3,2.4,11.2,2.6c1.2,0.1,2.3-0.1,3.1-1.3C32.8,78.4,33.6,78,34.3,77.4L34.3,77.4z M34.4,25.4
			c0-0.1,0-0.1,0-0.2c-0.2,0-0.4,0-0.6,0.1c-7,1.6-13.3,4.6-19.1,8.7c-2,1.4-3.9,3-5.5,4.9c-0.8,0.9-1.4,1.8-1.8,2.9
			c-0.2,0.5-0.3,1-0.1,1.6c0.7,0.5,1.3,0.3,2,0c1.3-0.6,2.3-1.7,3.3-2.6c2.4-2.3,4.6-4.7,7.1-6.8c3.6-3,7.7-5.3,12-7.3
			C32.5,26.2,33.4,25.8,34.4,25.4L34.4,25.4z M56.9,85.8c0.1,0,0.1,0,0.2,0c0.1-0.6,0.2-1.2,0.4-1.8c0.6-2.9,1.8-5.6,3.3-8.2
			c3.3-5.7,5.5-11.8,7.1-18.2c0-0.1,0-0.2,0-0.5c-0.2,0.4-0.3,0.6-0.4,0.8c-1.7,3.3-3.6,6.3-5.9,9.2c-1.3,1.7-2.4,3.4-3.3,5.3
			c-1.2,2.5-2,5.1-2,7.9C56.3,82.1,56.7,84,56.9,85.8L56.9,85.8z M20.1,10.9c1.2,1.6,2.4,3,3.5,4.5c2.3,3.2,5.6,4.9,9.3,6
			c2.2,0.6,4.4,0.7,6.6,0.9c0.9,0.1,1.8,0.1,2.7,0.2c0.5,0,1.1,0,1.6,0c-0.3-0.2-0.6-0.4-0.9-0.5c-5.3-1.7-10.4-3.8-15.2-6.7
			c-1.6-1-3.2-2.1-4.7-3.1C22.2,11.6,21.3,11.1,20.1,10.9z M18,41.1c-0.1,0-0.1-0.1-0.2-0.1c-2.6,2.3-5.1,4.7-7.1,7.6
			c-1.2,1.9-2.2,3.9-2.4,6.2c-0.1,1.5,0.1,2.9,0.8,4.2c0.7,1.3,1.6,1.5,2.8,0.6c0.6-0.4,1.3-0.8,1.9-1.2c0.8-0.4,1.5-1,2.1-1.8
			c-0.6-0.1-1.1-0.2-1.6-0.4c-1.4-0.4-2.1-1.3-2.1-2.8c0-1.3,0.1-2.5,0.2-3.8c0.2-1.6,0.8-3.1,1.9-4.3c1-1.1,1.9-2.2,2.9-3.3
			C17.5,41.7,17.7,41.4,18,41.1L18,41.1z M9.9,60.7c-0.5,1-1,1.9-0.7,3.2c0.3,1.3,0.3,2.7,0.4,4.1c0.1,0.8,0.4,1.5,0.9,2.1
			c0.8,0.9,1.8,1.6,2.9,2.1c0.2,0.1,0.4,0.1,0.8,0.2c-1-1.3-0.9-2.5-0.6-3.8c0.1-0.4,0.2-0.9,0.3-1.3c0.2-1.8,0.1-3.6-1.3-5.1
			c-0.4-0.5-0.9-0.9-1.4-1.3C10.7,60.8,10.3,60.7,9.9,60.7L9.9,60.7z"/>
	</g>
</g>
</svg>
