<?xml version="1.0" encoding="utf-8"?>
<!-- Generator: Adobe Illustrator 28.0.0, SVG Export Plug-In . SVG Version: 6.00 Build 0)  -->
<svg version="1.1" id="OBJECTS" xmlns="http://www.w3.org/2000/svg" xmlns:xlink="http://www.w3.org/1999/xlink" x="0px" y="0px"
	 viewBox="0 0 227 258.1" style="enable-background:new 0 0 227 258.1;" xml:space="preserve">
<style type="text/css">
	.st0{filter:url(#Adobe_OpacityMaskFilter);}
	.st1{fill:url(#SVGID_00000130614293687022958300000008579310972614849451_);}
	.st2{mask:url(#SVGID_1_);}
	.st3{fill:url(#SVGID_00000168831162062263460270000000442191347156679601_);}
	.st4{fill:url(#SVGID_00000050642265274716917120000000876604191593665215_);}
	.st5{fill:url(#SVGID_00000023278628331000336480000009841395105965011597_);}
	.st6{fill:url(#SVGID_00000172414621349768180760000006383197473177624483_);}
	.st7{fill:url(#SVGID_00000142875181964613796440000017883566459319639207_);}
	.st8{fill:url(#SVGID_00000083077905759825832690000000452622987139502216_);}
	.st9{fill:url(#SVGID_00000045610147414564405590000007009160907903979938_);}
	.st10{fill:url(#SVGID_00000086665672757037379630000016468182927935665548_);}
	.st11{fill:url(#SVGID_00000089540952335793562370000007791661617342282898_);}
	.st12{fill:url(#SVGID_00000047033493322006261450000013217628849557843592_);}
	.st13{fill:url(#SVGID_00000034088978113579084580000017829138490910298509_);}
	.st14{fill:url(#SVGID_00000139290925142907267880000014759795305793526442_);}
	.st15{fill:url(#SVGID_00000139284436997360567540000001276494161124143776_);}
	.st16{fill:url(#SVGID_00000178909322172065056190000004668969442998910604_);}
	.st17{fill:url(#SVGID_00000123440719423247150130000003343037986952534936_);}
	.st18{fill:url(#SVGID_00000078029407413972721160000016547705871619284133_);}
	.st19{fill:url(#SVGID_00000111181029921344876290000016462339960465196984_);}
	.st20{fill:url(#SVGID_00000152266188210748948720000005575709909170804665_);}
	.st21{fill:url(#SVGID_00000029750162221681630340000005073519954907306136_);}
	.st22{fill:url(#SVGID_00000155867404342833209460000002223173646800832150_);}
	.st23{fill:url(#SVGID_00000016796162304886020560000005559039632226031002_);}
	.st24{fill:url(#SVGID_00000152257475443522049460000004502445400673861022_);}
	.st25{fill:url(#SVGID_00000139280127688247229510000017876446234908371883_);}
	.st26{fill:url(#SVGID_00000068634933718396961450000011527502036148714930_);}
	.st27{fill:url(#SVGID_00000096773481497361129320000011470034789517444025_);}
	.st28{fill:url(#SVGID_00000152255387748201021790000003289445642177892781_);}
	.st29{fill:url(#SVGID_00000003085405781114252590000010675975310163665028_);}
	.st30{fill:url(#SVGID_00000045620849289918194380000003561815302994269611_);}
	.st31{fill:url(#SVGID_00000101091592068281370510000018170787007717951887_);}
	.st32{fill:url(#SVGID_00000071552846616131198140000009643397478866539157_);}
	.st33{fill:url(#SVGID_00000103952940131307033220000017114126183694609030_);}
	.st34{fill:url(#SVGID_00000173154929121564267020000006205404018096769156_);}
	.st35{fill:url(#SVGID_00000166663899561023260090000014036673255866868898_);}
	.st36{fill:url(#SVGID_00000067937516141566490600000014779386111782806202_);}
	.st37{fill:url(#SVGID_00000003807420543534048930000005139363470825693329_);}
	.st38{fill:url(#SVGID_00000069382920308453579210000009601329787169896850_);}
	.st39{fill:url(#SVGID_00000142876081241062577920000002395775489904900773_);}
	.st40{fill:url(#SVGID_00000069395639294237322740000008171167723527489938_);}
	.st41{fill:url(#SVGID_00000085250512844478173010000002898913012115337603_);}
	.st42{fill:url(#SVGID_00000042696657837510126190000008727374976572004532_);}
	.st43{fill:url(#SVGID_00000029745575519949760840000014431426330484318615_);}
	.st44{fill:url(#SVGID_00000093879889699184600000000016723311186012120966_);}
	.st45{fill:url(#SVGID_00000068655369925934786710000009988447728039790266_);}
	.st46{fill:url(#SVGID_00000003798300064369775310000011840535280306375077_);}
	.st47{fill:url(#SVGID_00000011715508203538950830000012626582644932265892_);}
	.st48{fill:url(#SVGID_00000079455634780590243900000006980497519818367401_);}
	.st49{fill:url(#SVGID_00000061453847390010189960000002059535776919852941_);}
	.st50{fill:#4C3F3E;}
</style>
<defs>
	<filter id="Adobe_OpacityMaskFilter" filterUnits="userSpaceOnUse" x="-0.4" y="8.9" width="211.2" height="263.6">
		<feColorMatrix  type="matrix" values="1 0 0 0 0  0 1 0 0 0  0 0 1 0 0  0 0 0 1 0"/>
	</filter>
</defs>
<mask maskUnits="userSpaceOnUse" x="-0.4" y="8.9" width="211.2" height="263.6" id="SVGID_1_">
	<g class="st0">
		
			<linearGradient id="SVGID_00000112611148045923384170000006171798457546323078_" gradientUnits="userSpaceOnUse" x1="113.2769" y1="258.11" x2="113.2769" y2="-9.094947e-13">
			<stop  offset="2.159805e-02" style="stop-color:#000000"/>
			<stop  offset="0.3645" style="stop-color:#FFFFFF"/>
		</linearGradient>
		<rect x="-0.4" style="fill:url(#SVGID_00000112611148045923384170000006171798457546323078_);" width="227.4" height="258.1"/>
	</g>
</mask>
<g class="st2">
	<g>
		<g>
			
				<linearGradient id="SVGID_00000178913544139197066490000007281235668339200132_" gradientUnits="userSpaceOnUse" x1="-7.4744" y1="131.5295" x2="214.6456" y2="0.6695" gradientTransform="matrix(1 0 0 -1 0 260)">
				<stop  offset="0" style="stop-color:#A37B57"/>
				<stop  offset="8.000000e-02" style="stop-color:#A67E5B"/>
				<stop  offset="0.16" style="stop-color:#B08A67"/>
				<stop  offset="0.24" style="stop-color:#C19D7B"/>
				<stop  offset="0.32" style="stop-color:#D9B797"/>
				<stop  offset="0.34" style="stop-color:#DEBD9D"/>
				<stop  offset="0.6" style="stop-color:#BA8E65"/>
				<stop  offset="1" style="stop-color:#946A43"/>
			</linearGradient>
			<path style="fill:url(#SVGID_00000178913544139197066490000007281235668339200132_);" d="M131.3,232.1c0.3,0,0.6-0.1,1-0.1
				c13.1-0.1,24.6-4.6,35.2-12.1c2.6-1.8,5.1-3.9,7.5-5.9c-1.5,2.6-12.4,10.2-19.1,13.1C148.1,230.7,140,232.8,131.3,232.1
				L131.3,232.1z"/>
			
				<linearGradient id="SVGID_00000045592078385370293700000017504186764575753600_" gradientUnits="userSpaceOnUse" x1="-0.4306" y1="143.479" x2="221.6794" y2="12.6189" gradientTransform="matrix(1 0 0 -1 0 260)">
				<stop  offset="0" style="stop-color:#A37B57"/>
				<stop  offset="8.000000e-02" style="stop-color:#A67E5B"/>
				<stop  offset="0.16" style="stop-color:#B08A67"/>
				<stop  offset="0.24" style="stop-color:#C19D7B"/>
				<stop  offset="0.32" style="stop-color:#D9B797"/>
				<stop  offset="0.34" style="stop-color:#DEBD9D"/>
				<stop  offset="0.6" style="stop-color:#BA8E65"/>
				<stop  offset="1" style="stop-color:#946A43"/>
			</linearGradient>
			<path style="fill:url(#SVGID_00000045592078385370293700000017504186764575753600_);" d="M119.1,216.6c-0.9-5.2,0-10.2,1.9-15.1
				c2.3-5.7,5.6-10.7,9.6-15.3c4.1-4.6,8.5-8.9,13.5-12.4c0.5-0.3,1-0.7,1.6-0.9c-1.5,1.2-3,2.3-4.5,3.5c-6.8,5.9-13,12.2-17.5,20.2
				c-2.2,4-3.8,8.3-4.6,12.8c-0.3,1.8-0.5,3.6-0.2,5.4C119.2,215.4,119.1,216,119.1,216.6L119.1,216.6z"/>
			
				<linearGradient id="SVGID_00000029752211793464965230000015928855845771685272_" gradientUnits="userSpaceOnUse" x1="-2.2004" y1="140.4793" x2="219.9196" y2="9.6293" gradientTransform="matrix(1 0 0 -1 0 260)">
				<stop  offset="0" style="stop-color:#A37B57"/>
				<stop  offset="8.000000e-02" style="stop-color:#A67E5B"/>
				<stop  offset="0.16" style="stop-color:#B08A67"/>
				<stop  offset="0.24" style="stop-color:#C19D7B"/>
				<stop  offset="0.32" style="stop-color:#D9B797"/>
				<stop  offset="0.34" style="stop-color:#DEBD9D"/>
				<stop  offset="0.6" style="stop-color:#BA8E65"/>
				<stop  offset="1" style="stop-color:#946A43"/>
			</linearGradient>
			<path style="fill:url(#SVGID_00000029752211793464965230000015928855845771685272_);" d="M163.7,191.1c-5,2.6-10,5.2-14.8,8.4
				c-4.9,3.2-9.4,6.8-13.7,10.8c-3.2,3-5.9,6.4-8.2,10.1c-0.2,0.4-0.5,0.7-0.7,1.1l-0.2-0.1c0.3-0.5,0.6-1.1,0.9-1.6
				c3.3-5.4,7.6-9.8,12.4-13.8c7.2-6,15.2-10.8,23.8-14.6C163.3,191.2,163.5,191.1,163.7,191.1L163.7,191.1z"/>
			
				<linearGradient id="SVGID_00000000940594514951721210000017396445447707484330_" gradientUnits="userSpaceOnUse" x1="0.2628" y1="144.6548" x2="222.3828" y2="13.7948" gradientTransform="matrix(1 0 0 -1 0 260)">
				<stop  offset="0" style="stop-color:#A37B57"/>
				<stop  offset="8.000000e-02" style="stop-color:#A67E5B"/>
				<stop  offset="0.16" style="stop-color:#B08A67"/>
				<stop  offset="0.24" style="stop-color:#C19D7B"/>
				<stop  offset="0.32" style="stop-color:#D9B797"/>
				<stop  offset="0.34" style="stop-color:#DEBD9D"/>
				<stop  offset="0.6" style="stop-color:#BA8E65"/>
				<stop  offset="1" style="stop-color:#946A43"/>
			</linearGradient>
			<path style="fill:url(#SVGID_00000000940594514951721210000017396445447707484330_);" d="M151.2,179.8c-1.9,1.2-3.8,2.5-5.6,3.7
				c-7.4,5-13.6,11.2-19,18.3c-1.9,2.5-3.4,5.3-4.6,8.3c-0.2,0.4-0.3,0.7-0.6,1.1c1.1-3,2.2-6,4-8.6c2.8-4.2,6.2-7.8,9.8-11.3
				C140,186.6,145.4,182.9,151.2,179.8L151.2,179.8z"/>
			
				<linearGradient id="SVGID_00000052815898427664685100000009902207440540304567_" gradientUnits="userSpaceOnUse" x1="0.4808" y1="145.0213" x2="222.5907" y2="14.1613" gradientTransform="matrix(1 0 0 -1 0 260)">
				<stop  offset="0" style="stop-color:#A37B57"/>
				<stop  offset="8.000000e-02" style="stop-color:#A67E5B"/>
				<stop  offset="0.16" style="stop-color:#B08A67"/>
				<stop  offset="0.24" style="stop-color:#C19D7B"/>
				<stop  offset="0.32" style="stop-color:#D9B797"/>
				<stop  offset="0.34" style="stop-color:#DEBD9D"/>
				<stop  offset="0.6" style="stop-color:#BA8E65"/>
				<stop  offset="1" style="stop-color:#946A43"/>
			</linearGradient>
			<path style="fill:url(#SVGID_00000052815898427664685100000009902207440540304567_);" d="M182.7,202.6
				c-7.1,10.5-16.8,17.7-28.1,22.9C165.5,219.8,175.2,212.6,182.7,202.6z"/>
			
				<linearGradient id="SVGID_00000084517875543398144470000018380466181085349308_" gradientUnits="userSpaceOnUse" x1="-3.1789" y1="138.8219" x2="218.9411" y2="7.9619" gradientTransform="matrix(1 0 0 -1 0 260)">
				<stop  offset="0" style="stop-color:#A37B57"/>
				<stop  offset="8.000000e-02" style="stop-color:#A67E5B"/>
				<stop  offset="0.16" style="stop-color:#B08A67"/>
				<stop  offset="0.24" style="stop-color:#C19D7B"/>
				<stop  offset="0.32" style="stop-color:#D9B797"/>
				<stop  offset="0.34" style="stop-color:#DEBD9D"/>
				<stop  offset="0.6" style="stop-color:#BA8E65"/>
				<stop  offset="1" style="stop-color:#946A43"/>
			</linearGradient>
			<path style="fill:url(#SVGID_00000084517875543398144470000018380466181085349308_);" d="M165.4,207.4
				c-7.3,4.9-14.9,9.2-22.9,12.9c7.6-4.4,15.1-8.7,22.7-13.1C165.3,207.2,165.3,207.3,165.4,207.4L165.4,207.4z"/>
			
				<linearGradient id="SVGID_00000023269722635416608180000010796178858329797048_" gradientUnits="userSpaceOnUse" x1="14.791" y1="169.3117" x2="236.901" y2="38.4517" gradientTransform="matrix(1 0 0 -1 0 260)">
				<stop  offset="0" style="stop-color:#A37B57"/>
				<stop  offset="8.000000e-02" style="stop-color:#A67E5B"/>
				<stop  offset="0.16" style="stop-color:#B08A67"/>
				<stop  offset="0.24" style="stop-color:#C19D7B"/>
				<stop  offset="0.32" style="stop-color:#D9B797"/>
				<stop  offset="0.34" style="stop-color:#DEBD9D"/>
				<stop  offset="0.6" style="stop-color:#BA8E65"/>
				<stop  offset="1" style="stop-color:#946A43"/>
			</linearGradient>
			<path style="fill:url(#SVGID_00000023269722635416608180000010796178858329797048_);" d="M156.6,185.5c4.3-3.5,18.3-10,21.6-9.9
				c-0.3,0.2-0.5,0.4-0.8,0.5C170.1,178.5,163.3,181.9,156.6,185.5z"/>
			
				<linearGradient id="SVGID_00000120529057768051560740000011412715522572812175_" gradientUnits="userSpaceOnUse" x1="-7.3716" y1="131.7073" x2="214.7484" y2="0.8473" gradientTransform="matrix(1 0 0 -1 0 260)">
				<stop  offset="0" style="stop-color:#A37B57"/>
				<stop  offset="8.000000e-02" style="stop-color:#A67E5B"/>
				<stop  offset="0.16" style="stop-color:#B08A67"/>
				<stop  offset="0.24" style="stop-color:#C19D7B"/>
				<stop  offset="0.32" style="stop-color:#D9B797"/>
				<stop  offset="0.34" style="stop-color:#DEBD9D"/>
				<stop  offset="0.6" style="stop-color:#BA8E65"/>
				<stop  offset="1" style="stop-color:#946A43"/>
			</linearGradient>
			<path style="fill:url(#SVGID_00000120529057768051560740000011412715522572812175_);" d="M140.3,199c-3.5,3.2-7,6.5-10,10.3
				c-3,3.7-5.6,7.7-7.6,12.1c0.1-0.3,0.2-0.6,0.3-0.9c1.5-3.9,3.7-7.3,6.2-10.5c2.9-3.6,6-7,9.6-9.9c0.4-0.3,0.7-0.6,1.1-0.9
				C140.1,199.1,140.2,199,140.3,199L140.3,199z"/>
			
				<linearGradient id="SVGID_00000097470366105130801420000009856482499702163888_" gradientUnits="userSpaceOnUse" x1="-9.8299" y1="127.5202" x2="212.2801" y2="-3.3398" gradientTransform="matrix(1 0 0 -1 0 260)">
				<stop  offset="0" style="stop-color:#A37B57"/>
				<stop  offset="8.000000e-02" style="stop-color:#A67E5B"/>
				<stop  offset="0.16" style="stop-color:#B08A67"/>
				<stop  offset="0.24" style="stop-color:#C19D7B"/>
				<stop  offset="0.32" style="stop-color:#D9B797"/>
				<stop  offset="0.34" style="stop-color:#DEBD9D"/>
				<stop  offset="0.6" style="stop-color:#BA8E65"/>
				<stop  offset="1" style="stop-color:#946A43"/>
			</linearGradient>
			<path style="fill:url(#SVGID_00000097470366105130801420000009856482499702163888_);" d="M145.7,233.3c8.2-0.3,16.2-1.6,23.9-4.4
				C166.1,231.3,152.4,233.9,145.7,233.3z"/>
			
				<linearGradient id="SVGID_00000007403895626097767300000007439555719292246693_" gradientUnits="userSpaceOnUse" x1="10.6573" y1="162.3055" x2="232.7773" y2="31.4454" gradientTransform="matrix(1 0 0 -1 0 260)">
				<stop  offset="0" style="stop-color:#A37B57"/>
				<stop  offset="8.000000e-02" style="stop-color:#A67E5B"/>
				<stop  offset="0.16" style="stop-color:#B08A67"/>
				<stop  offset="0.24" style="stop-color:#C19D7B"/>
				<stop  offset="0.32" style="stop-color:#D9B797"/>
				<stop  offset="0.34" style="stop-color:#DEBD9D"/>
				<stop  offset="0.6" style="stop-color:#BA8E65"/>
				<stop  offset="1" style="stop-color:#946A43"/>
			</linearGradient>
			<path style="fill:url(#SVGID_00000007403895626097767300000007439555719292246693_);" d="M167.1,197.4c4.5-2.3,9.1-4.6,13.8-7.1
				c-0.2,0.4-0.2,0.7-0.4,0.8c-0.7,0.5-1.3,1-2.1,1.3c-3.6,1.7-7.3,3.4-11,5.1c-0.1,0-0.2,0-0.3,0
				C167.1,197.5,167.1,197.5,167.1,197.4L167.1,197.4z"/>
			
				<linearGradient id="SVGID_00000116235165346050081210000011495821953417930919_" gradientUnits="userSpaceOnUse" x1="3.5414" y1="150.2123" x2="225.6514" y2="19.3523" gradientTransform="matrix(1 0 0 -1 0 260)">
				<stop  offset="0" style="stop-color:#A37B57"/>
				<stop  offset="8.000000e-02" style="stop-color:#A67E5B"/>
				<stop  offset="0.16" style="stop-color:#B08A67"/>
				<stop  offset="0.24" style="stop-color:#C19D7B"/>
				<stop  offset="0.32" style="stop-color:#D9B797"/>
				<stop  offset="0.34" style="stop-color:#DEBD9D"/>
				<stop  offset="0.6" style="stop-color:#BA8E65"/>
				<stop  offset="1" style="stop-color:#946A43"/>
			</linearGradient>
			<path style="fill:url(#SVGID_00000116235165346050081210000011495821953417930919_);" d="M131.2,175.2
				c-0.9,4.9-4.7,14.3-6.3,15.9c1.2-2.8,2.3-5.4,3.3-8C129.3,180.5,130.2,177.8,131.2,175.2z"/>
			
				<linearGradient id="SVGID_00000139292137882334363960000015515165502237541775_" gradientUnits="userSpaceOnUse" x1="-10.9707" y1="125.5989" x2="211.1493" y2="-5.2611" gradientTransform="matrix(1 0 0 -1 0 260)">
				<stop  offset="0" style="stop-color:#A37B57"/>
				<stop  offset="8.000000e-02" style="stop-color:#A67E5B"/>
				<stop  offset="0.16" style="stop-color:#B08A67"/>
				<stop  offset="0.24" style="stop-color:#C19D7B"/>
				<stop  offset="0.32" style="stop-color:#D9B797"/>
				<stop  offset="0.34" style="stop-color:#DEBD9D"/>
				<stop  offset="0.6" style="stop-color:#BA8E65"/>
				<stop  offset="1" style="stop-color:#946A43"/>
			</linearGradient>
			<path style="fill:url(#SVGID_00000139292137882334363960000015515165502237541775_);" d="M173.3,239.6c-2.7-0.9-5.5-1.9-8.3-2.8
				c-2.9-0.9-5.9-0.8-9-0.8C158.6,234.6,168.8,236.8,173.3,239.6L173.3,239.6z"/>
			
				<linearGradient id="SVGID_00000041991830859064435380000001629623516951766206_" gradientUnits="userSpaceOnUse" x1="21.2831" y1="180.3353" x2="243.3931" y2="49.4753" gradientTransform="matrix(1 0 0 -1 0 260)">
				<stop  offset="0" style="stop-color:#A37B57"/>
				<stop  offset="8.000000e-02" style="stop-color:#A67E5B"/>
				<stop  offset="0.16" style="stop-color:#B08A67"/>
				<stop  offset="0.24" style="stop-color:#C19D7B"/>
				<stop  offset="0.32" style="stop-color:#D9B797"/>
				<stop  offset="0.34" style="stop-color:#DEBD9D"/>
				<stop  offset="0.6" style="stop-color:#BA8E65"/>
				<stop  offset="1" style="stop-color:#946A43"/>
			</linearGradient>
			<path style="fill:url(#SVGID_00000041991830859064435380000001629623516951766206_);" d="M176.7,169.4c2.9,1.5,5.5,3.5,7.6,6
				c0.6,0.7,1.1,1.6,1.1,2.8c-0.2-0.2-0.4-0.3-0.5-0.4c-0.8-2.2-2.5-3.7-4.2-5.2C179.3,171.5,178,170.5,176.7,169.4L176.7,169.4z"/>
			
				<linearGradient id="SVGID_00000084530137439494418480000012099238503543087781_" gradientUnits="userSpaceOnUse" x1="19.3292" y1="177.0187" x2="241.4392" y2="46.1587" gradientTransform="matrix(1 0 0 -1 0 260)">
				<stop  offset="0" style="stop-color:#A37B57"/>
				<stop  offset="8.000000e-02" style="stop-color:#A67E5B"/>
				<stop  offset="0.16" style="stop-color:#B08A67"/>
				<stop  offset="0.24" style="stop-color:#C19D7B"/>
				<stop  offset="0.32" style="stop-color:#D9B797"/>
				<stop  offset="0.34" style="stop-color:#DEBD9D"/>
				<stop  offset="0.6" style="stop-color:#BA8E65"/>
				<stop  offset="1" style="stop-color:#946A43"/>
			</linearGradient>
			<path style="fill:url(#SVGID_00000084530137439494418480000012099238503543087781_);" d="M155.6,169.1c3.4-2,7-3.4,10.6-4.9
				c0.2-0.1,0.4,0,0.9,0c-0.4,0.3-0.6,0.5-0.8,0.6c-3.5,1.5-7,2.9-10.6,4.4C155.7,169.2,155.6,169.1,155.6,169.1L155.6,169.1z"/>
			
				<linearGradient id="SVGID_00000129924224581412622130000001312329949342111152_" gradientUnits="userSpaceOnUse" x1="-8.4681" y1="129.8433" x2="213.6519" y2="-1.0167" gradientTransform="matrix(1 0 0 -1 0 260)">
				<stop  offset="0" style="stop-color:#A37B57"/>
				<stop  offset="8.000000e-02" style="stop-color:#A67E5B"/>
				<stop  offset="0.16" style="stop-color:#B08A67"/>
				<stop  offset="0.24" style="stop-color:#C19D7B"/>
				<stop  offset="0.32" style="stop-color:#D9B797"/>
				<stop  offset="0.34" style="stop-color:#DEBD9D"/>
				<stop  offset="0.6" style="stop-color:#BA8E65"/>
				<stop  offset="1" style="stop-color:#946A43"/>
			</linearGradient>
			<path style="fill:url(#SVGID_00000129924224581412622130000001312329949342111152_);" d="M180.4,242c-2.3-2.8-5.7-3.7-8.7-5.3
				c2.5,0.7,4.8,1.7,7,3.1C179.5,240.3,180.2,240.9,180.4,242z"/>
			
				<linearGradient id="SVGID_00000109003046810776503510000012959829538027139473_" gradientUnits="userSpaceOnUse" x1="-4.187" y1="137.1051" x2="217.933" y2="6.2451" gradientTransform="matrix(1 0 0 -1 0 260)">
				<stop  offset="0" style="stop-color:#A37B57"/>
				<stop  offset="8.000000e-02" style="stop-color:#A67E5B"/>
				<stop  offset="0.16" style="stop-color:#B08A67"/>
				<stop  offset="0.24" style="stop-color:#C19D7B"/>
				<stop  offset="0.32" style="stop-color:#D9B797"/>
				<stop  offset="0.34" style="stop-color:#DEBD9D"/>
				<stop  offset="0.6" style="stop-color:#BA8E65"/>
				<stop  offset="1" style="stop-color:#946A43"/>
			</linearGradient>
			<path style="fill:url(#SVGID_00000109003046810776503510000012959829538027139473_);" d="M158.3,213.8c-2.8,1.6-5.6,3.3-8.4,4.9
				c-0.1-0.1-0.1-0.2-0.1-0.2c2.8-1.6,5.6-3.3,8.4-5C158.2,213.6,158.3,213.7,158.3,213.8L158.3,213.8z"/>
			
				<linearGradient id="SVGID_00000127009757476008373400000013315550828382971030_" gradientUnits="userSpaceOnUse" x1="21.7313" y1="181.0923" x2="243.8413" y2="50.2323" gradientTransform="matrix(1 0 0 -1 0 260)">
				<stop  offset="0" style="stop-color:#A37B57"/>
				<stop  offset="8.000000e-02" style="stop-color:#A67E5B"/>
				<stop  offset="0.16" style="stop-color:#B08A67"/>
				<stop  offset="0.24" style="stop-color:#C19D7B"/>
				<stop  offset="0.32" style="stop-color:#D9B797"/>
				<stop  offset="0.34" style="stop-color:#DEBD9D"/>
				<stop  offset="0.6" style="stop-color:#BA8E65"/>
				<stop  offset="1" style="stop-color:#946A43"/>
			</linearGradient>
			<path style="fill:url(#SVGID_00000127009757476008373400000013315550828382971030_);" d="M186.7,177.6c-0.6-1-1.2-2-1.9-2.9
				c-0.7-0.9-1.5-1.8-2.2-2.6C184.5,173.1,186.8,176.2,186.7,177.6z"/>
			
				<linearGradient id="SVGID_00000130609791294324367880000008311191234237215361_" gradientUnits="userSpaceOnUse" x1="4.3177" y1="151.536" x2="226.4276" y2="20.676" gradientTransform="matrix(1 0 0 -1 0 260)">
				<stop  offset="0" style="stop-color:#A37B57"/>
				<stop  offset="8.000000e-02" style="stop-color:#A67E5B"/>
				<stop  offset="0.16" style="stop-color:#B08A67"/>
				<stop  offset="0.24" style="stop-color:#C19D7B"/>
				<stop  offset="0.32" style="stop-color:#D9B797"/>
				<stop  offset="0.34" style="stop-color:#DEBD9D"/>
				<stop  offset="0.6" style="stop-color:#BA8E65"/>
				<stop  offset="1" style="stop-color:#946A43"/>
			</linearGradient>
			<path style="fill:url(#SVGID_00000130609791294324367880000008311191234237215361_);" d="M128.4,185.8c1-2.3,1.9-4.5,2.9-6.8
				c-0.5,2.4-1.4,4.8-2.5,6.9C128.6,185.9,128.5,185.8,128.4,185.8L128.4,185.8z"/>
			
				<linearGradient id="SVGID_00000170266840190975733510000004090009496517944973_" gradientUnits="userSpaceOnUse" x1="14.2281" y1="168.3668" x2="236.3481" y2="37.5068" gradientTransform="matrix(1 0 0 -1 0 260)">
				<stop  offset="0" style="stop-color:#A37B57"/>
				<stop  offset="8.000000e-02" style="stop-color:#A67E5B"/>
				<stop  offset="0.16" style="stop-color:#B08A67"/>
				<stop  offset="0.24" style="stop-color:#C19D7B"/>
				<stop  offset="0.32" style="stop-color:#D9B797"/>
				<stop  offset="0.34" style="stop-color:#DEBD9D"/>
				<stop  offset="0.6" style="stop-color:#BA8E65"/>
				<stop  offset="1" style="stop-color:#946A43"/>
			</linearGradient>
			<path style="fill:url(#SVGID_00000170266840190975733510000004090009496517944973_);" d="M191.5,198.6c-0.6-2.2-0.8-4.2-2.1-6
				c0.8-0.2,1,0.3,1.2,0.7c0.4,1.1,0.7,2.3,0.9,3.5C191.6,197.3,191.5,197.9,191.5,198.6L191.5,198.6z"/>
			
				<linearGradient id="SVGID_00000039814549031023096060000007560732388121776538_" gradientUnits="userSpaceOnUse" x1="21.2012" y1="180.2021" x2="243.3212" y2="49.3421" gradientTransform="matrix(1 0 0 -1 0 260)">
				<stop  offset="0" style="stop-color:#A37B57"/>
				<stop  offset="8.000000e-02" style="stop-color:#A67E5B"/>
				<stop  offset="0.16" style="stop-color:#B08A67"/>
				<stop  offset="0.24" style="stop-color:#C19D7B"/>
				<stop  offset="0.32" style="stop-color:#D9B797"/>
				<stop  offset="0.34" style="stop-color:#DEBD9D"/>
				<stop  offset="0.6" style="stop-color:#BA8E65"/>
				<stop  offset="1" style="stop-color:#946A43"/>
			</linearGradient>
			<path style="fill:url(#SVGID_00000039814549031023096060000007560732388121776538_);" d="M161.1,165.4c2-1.1,4-2.1,6.2-2.6
				C165.4,163.9,163.2,164.6,161.1,165.4z"/>
			
				<linearGradient id="SVGID_00000041287813840893885860000018380959324928251320_" gradientUnits="userSpaceOnUse" x1="19.1081" y1="176.6468" x2="241.2181" y2="45.7868" gradientTransform="matrix(1 0 0 -1 0 260)">
				<stop  offset="0" style="stop-color:#A37B57"/>
				<stop  offset="8.000000e-02" style="stop-color:#A67E5B"/>
				<stop  offset="0.16" style="stop-color:#B08A67"/>
				<stop  offset="0.24" style="stop-color:#C19D7B"/>
				<stop  offset="0.32" style="stop-color:#D9B797"/>
				<stop  offset="0.34" style="stop-color:#DEBD9D"/>
				<stop  offset="0.6" style="stop-color:#BA8E65"/>
				<stop  offset="1" style="stop-color:#946A43"/>
			</linearGradient>
			<path style="fill:url(#SVGID_00000041287813840893885860000018380959324928251320_);" d="M176.9,174.1c-1.5,0.9-3.1,1.1-4.7,1.6
				C173.6,174.9,175.2,174.3,176.9,174.1z"/>
		</g>
		
			<linearGradient id="SVGID_00000042717334658821933230000010680101222517409453_" gradientUnits="userSpaceOnUse" x1="1.2906" y1="146.4109" x2="223.4106" y2="15.5509" gradientTransform="matrix(1 0 0 -1 0 260)">
			<stop  offset="0" style="stop-color:#A37B57"/>
			<stop  offset="8.000000e-02" style="stop-color:#A67E5B"/>
			<stop  offset="0.16" style="stop-color:#B08A67"/>
			<stop  offset="0.24" style="stop-color:#C19D7B"/>
			<stop  offset="0.32" style="stop-color:#D9B797"/>
			<stop  offset="0.34" style="stop-color:#DEBD9D"/>
			<stop  offset="0.6" style="stop-color:#BA8E65"/>
			<stop  offset="1" style="stop-color:#946A43"/>
		</linearGradient>
		<path style="fill:url(#SVGID_00000042717334658821933230000010680101222517409453_);" d="M115.4,232.6c0.3-0.4,0.5-0.7,0.8-1.1
			c2.2-2.1,3-4.8,3.1-7.7c0.1-2.4-0.2-4.7-0.6-7.1c-0.5-3.2-0.6-6.4-0.2-9.6c0.8-6.6,2.7-13,4.5-19.4c1.6-5.9,3.1-11.8,4.2-17.9
			c0.5-2.6,0.7-5.2,1-7.8c0.4-3.4,0.7-6.8,1.2-10.1c0.3-1.9,1.2-3.6,3-4.7c0.6-0.3,1.2-0.7,1.9-0.2c0.4,0.3,0.8,0.7,0.9,1.1
			c0.3,1.1,0.6,2.3,0.7,3.4c0.1,1.8,0.1,3.5,0,5.3c-0.1,2.1,0.4,4.2,0.8,6.3c0.9,4.7,0.2,9.2-1.9,13.4c-0.1,0.3-0.3,0.6-0.3,1
			c0.3-0.3,0.6-0.6,0.9-0.9c4.4-4.8,9.4-9.1,14.9-12.6c3.7-2.3,7.5-4.1,11.7-5.2c1.2-0.3,2.4-0.6,3.7-0.2c1.8,0.5,2.7,2,2.1,3.8
			c-0.4,1.3-0.9,2.5-0.7,4c0.5-0.1,1.1-0.2,1.6-0.2c5.5,0.3,10.9,1.2,15.9,3.8c0.3,0.2,0.7,0.4,1,0.6c1.9,1.3,2.8,2.4,2.8,5.3
			c1.1,0.6,2.1,1.2,3.1,1.9c1.8,1.2,2.7,2.9,2.6,5.2c0,0.8,0.1,1.6,0.2,2.3c0.4,2,0.5,4-0.7,5.9c1.2,1.4,1.8,3,1.9,4.9
			c0.1,1.8,0,3.6-0.7,5.3c-1.1,2.9-2.8,5.5-4.8,7.9c-2.4,2.7-5,5.1-7.7,7.4c-0.8,0.6-1.4,1.3-2.1,2c-1.7,1.7-3.7,3-5.7,4.2
			c-1.5,0.9-3.1,1.7-4.6,2.6c-0.3,0.2-0.7,0.4-0.9,0.8c0.3-0.1,0.7-0.2,1-0.4c1.9-0.9,3.9-1.9,5.8-2.8c1.9-0.9,3.7-1.9,5.6-2.6
			c2.9-1.2,5.4-2.9,7.6-5.2c1.2-1.2,2.5-2.4,3.8-3.4c0.8-0.6,1.7-1,2.7-0.9c1.1,0.1,1.6,0.5,1.6,1.7c0,1.1-0.3,2.2-1,3.1
			c-0.8,1.2-1.7,2.4-2.8,3.5c-3.9,4-8.5,6.9-13.3,9.5c-3.3,1.8-6.7,3.3-10.2,4.4c-0.4,0.1-0.8,0.3-1.1,0.4c1.8,0.7,3.6,1.3,5.3,2.1
			c2.6,1.2,4.6,3.1,6.2,5.4c1.5,2.2,3.1,4.4,4.6,6.6c0.5,0.7,0.9,1.4,1.2,2.1c0.5,1.5-0.2,2.7-1.7,3.1c-1.1,0.3-2.1,0.1-3.1-0.1
			c-2.1-0.4-4-1.5-5.8-2.7c-5.7-4.1-12-7.2-18.6-9.6c-6.8-2.5-13.8-4.4-20.8-6.1c-2.7-0.6-5.3-1.5-7.9-2.5
			c-3.6-1.4-7.3-1.5-10.9,0.2c-0.5,0.2-1.1,0.5-1.7,0.7C115.6,232.8,115.5,232.7,115.4,232.6L115.4,232.6z M120.3,218.4
			c-0.2,1.7,0.6,3.9,1.6,6.1c0.9,2,2.4,3.3,4.6,3.7c2.3,0.4,4.6,0.3,6.9-0.1c3-0.6,5.9-1.6,8.8-2.7c9.7-3.5,18.8-8.2,27-14.4
			c2.5-1.9,4.9-3.9,6.8-6.4c2.9-3.9,4.2-8.3,4.2-13.1c0-2.1,0.1-4.3,0.2-6.4c0-1.1,0.1-2.1,0-3.2c-1-6.6-6.6-11.8-14.5-10.9
			c-3.1,0.4-6.1,1.2-9.1,2.2c-15,5.4-25.8,15.4-33,29.5C121.6,207.3,120.5,212.4,120.3,218.4L120.3,218.4z M180.1,198
			c-0.1,0.2-0.1,0.4-0.2,0.6c-1.1,3.4-2.8,6.5-5.5,9c-1.5,1.3-2.9,2.7-4.5,3.9c-7.6,5.8-15.9,10.2-24.8,13.6
			c-4.4,1.7-8.8,3.4-13.5,4.1c-0.8,0.1-1.5,0.4-2,1.1c-0.2,0.9,0.5,1.3,1.1,1.6c0.4,0.2,0.9,0.3,1.4,0.3c2.2,0.3,4.4,0.5,6.6,0.8
			c3.2,0.4,6.3,0,9.5-0.4c4.1-0.6,8.1-1.7,11.9-3.2c5.9-2.3,11.6-5.3,16.9-8.9c1.5-1,2.8-2.2,3.9-3.6c1.5-1.9,3.1-3.8,4.7-5.7
			c0.7-0.9,1.5-1.7,2.1-2.6c0.6-0.9,1.1-1.8,1.3-2.8c0.6-2,0.6-4.1,0.6-6.2c-0.1-1.2-0.6-2-1.7-2.4c-0.7-0.2-1.5-0.4-2.3-0.4
			C183.6,196.6,181.8,197.2,180.1,198L180.1,198z M119.6,216.9c0.1-0.5,0.1-0.6,0.2-0.8c0.2-2.7,0.6-5.3,1.3-7.8
			c1.5-5.2,4-9.8,7.1-14.2c7.8-10.9,18-18.5,30.9-22.4c2.6-0.8,4.7-2.3,6.4-4.3c0.4-0.5,0.7-1.2,0.9-1.9c0.3-1.1,0.4-2.2,0.8-3.3
			c0.4-1.1-0.3-2.5-1.5-2.9c-1.2-0.4-2.4-0.2-3.6,0.1c-4.1,1.1-7.9,2.9-11.5,5.1c-6.4,4-11.9,9.1-16.9,14.8
			c-4.5,5.2-8.5,10.9-11.4,17.1c-2.9,6.2-4,12.7-3.2,19.5C119.3,216.3,119.4,216.5,119.6,216.9L119.6,216.9z M145.5,236l0,0.1
			c0.8,0.2,1.6,0.4,2.4,0.5c3.4,0.8,6.9,0.6,10.4,0.9c2,0.2,4.1,0.3,6,0.8c5,1.2,9.4,3.4,12.5,7.7c0.6,0.9,1.3,1.8,1.9,2.6
			c0.6,0.8,1.2,1.6,1.8,2.3c0.6,0.8,1.5,1.3,2.4,1.5c0.9,0.2,1.8,0,2.4-0.8c0.6-0.7,0.4-1.5,0-2.2c-0.2-0.5-0.6-0.9-0.9-1.4
			c-1.6-2.2-3.2-4.4-4.7-6.7c-1-1.4-2.1-2.7-3.5-3.8c-2.1-1.5-4.4-2.5-6.9-3.2c-1.1-0.3-2.2-0.4-3.4-0.2c-3,0.7-5.9,1.4-9,1.6
			c-2.2,0.1-4.4,0.2-6.5,0.2C148.8,236.2,147.2,236.1,145.5,236L145.5,236z M184.2,220.3c-0.4,0-0.5,0-0.6,0
			c-2.1,0.9-4.2,1.9-6.3,2.9c-3.4,1.6-6.7,3.4-10.3,4.6c-2.8,0.9-5.6,1.9-8.4,2.9c-1.4,0.5-2.8,0.9-4.2,1.3
			c-3.4,0.9-6.8,1.6-10.2,1.6c-1.9,0-3.8,0-5.7,0c-1.1,0-2.2-0.1-3.3-0.2c4,1.2,8.2,1.8,12.3,2c2.1,0.1,4.3,0.2,6.4,0.1
			c2.2-0.1,4.4-0.4,6.5-1.1c7.2-2.4,13.7-6.2,19.8-10.7C181.6,222.7,182.8,221.5,184.2,220.3L184.2,220.3z M125.1,182.2
			c0.1,0,0.1,0.1,0.2,0.1c0.1-0.3,0.2-0.6,0.4-0.9c1.5-3.1,2.8-6.4,4.6-9.3c3.9-6.4,5-13.5,4.9-20.8c0-1-0.3-2-0.6-2.9
			c-0.3-0.9-0.9-1.1-1.6-0.6c-0.7,0.5-1.4,1.1-1.9,1.9c-0.5,0.8-0.8,1.7-1,2.6c-0.3,1.6-0.4,3.2-0.6,4.8c-0.3,2.3-0.5,4.6-0.9,6.9
			c-0.5,3.2-0.9,6.5-1.6,9.7C126.5,176.5,125.7,179.4,125.1,182.2L125.1,182.2z M184.6,195.9c1-1.3,2.1-2.4,3.6-3.1
			c0.9-0.4,1.7-1.1,2.7-1.7c-0.4-0.4-0.7-0.8-1-1.1c-1.2-1-2-2.4-2.2-3.9c-0.1-1.1-0.1-2.2,0-3.4c0.1-1,0.4-2.1,0.4-3.1
			c0.1-0.8,0-1.6-0.7-2.2c-2.4,1.2-4.7,1.3-7.3,0.3c0.1,0.5,0.2,0.7,0.3,1c0.2,0.9,0.7,1.8,0.7,2.7c0,4.2-0.2,8.4-0.3,12.6
			c0,0.1-0.1,0.2-0.1,0.3c-0.1,0.8-0.2,1.6-0.3,2.4C181.9,196.6,183.2,196.3,184.6,195.9z M163.4,170.5c1.5-0.1,3.1-0.3,4.7-0.3
			c4.6,0,8.1,1.9,10.7,5.6c0.6,0.9,1.4,1.4,2.4,1.8c1.7,0.6,3.3,0.4,4.9-0.2c1.2-0.4,1.8-1.4,1.6-2.7c-0.2-1.1-0.6-2.1-1.5-2.8
			c-0.8-0.6-1.5-1.2-2.3-1.6c-1.9-0.8-3.8-1.6-5.8-2.2c-3.3-0.9-6.6-1.4-10.1-1.3c-0.5,0-1.1,0.1-1.4,0.4
			C165.5,168.3,164.4,169.4,163.4,170.5L163.4,170.5z M162.9,234.1c0.3,0.1,0.4,0.1,0.4,0.1c0.1,0,0.3,0,0.5-0.1
			c8.5-1.9,16.3-5.6,23.4-10.6c2.5-1.8,4.8-3.8,6.8-6.1c0.9-1.1,1.7-2.2,2.2-3.6c0.2-0.6,0.3-1.3,0.1-1.9c-0.8-0.6-1.6-0.4-2.4,0
			c-1.6,0.8-2.8,2-4,3.2c-2.9,2.8-5.7,5.8-8.7,8.3c-4.4,3.7-9.5,6.5-14.7,8.9C165.4,233.1,164.2,233.5,162.9,234.1L162.9,234.1z
			 M122,195.2c0.1,0,0.2,0.1,0.2,0.1c0.1-0.2,0.2-0.4,0.3-0.6c2-4,4.4-7.8,7.2-11.4c1.6-2,2.9-4.2,4.1-6.5
			c2.7-5.3,3.1-10.8,1.3-16.7c-0.6,4.6-2.2,8.6-4.4,12.3c-3.5,5.9-5.9,12.3-7.8,18.9C122.6,192.5,122.3,193.8,122,195.2L122,195.2z
			 M151.2,237.8c0.5,0.2,0.8,0.4,1.1,0.4c8.6,2.7,16.8,6.4,24.1,11.7c1,0.7,2.1,1.2,3.2,1.7c0.2,0.1,0.5,0.1,0.7,0.1
			c-1.5-2-3-3.8-4.4-5.7c-2.9-3.9-7-6-11.6-7.2c-4.1-1-8.3-0.9-12.4-1.2C151.7,237.8,151.6,237.8,151.2,237.8L151.2,237.8z
			 M185.5,195.9c0.8,0.2,1.4,0.3,2.1,0.5c1.7,0.5,2.5,1.6,2.5,3.4c0,1.6-0.1,3.1-0.3,4.7c-0.2,2-0.9,3.8-2.3,5.3
			c-1.3,1.5-2.6,3-3.8,4.4c-0.2,0.2-0.4,0.5-0.6,0.8c0.2,0,0.4-0.1,0.5-0.2c2.1-2.2,4.4-4.2,6.4-6.5c2.5-2.9,4.4-6.1,4.9-10.1
			c0.2-1.9-0.1-3.6-1-5.2c-0.9-1.7-2-1.8-3.6-0.7c-0.7,0.5-1.5,1-2.3,1.4C187.1,194.1,186.2,194.8,185.5,195.9L185.5,195.9z
			 M193.1,190.9c0.7-1.3,1.2-2.5,0.9-4.1c-0.3-1.6-0.4-3.2-0.5-4.9c-0.1-0.9-0.4-1.7-1-2.4c-0.9-1.1-2.1-1.9-3.3-2.5
			c-0.3-0.1-0.6-0.2-1.1-0.4c0.2,0.4,0.4,0.7,0.5,0.9c0.4,0.9,0.6,1.8,0.4,2.8c-0.2,0.9-0.4,1.8-0.5,2.6c-0.3,2.6,0,5,2.2,6.8
			c0.4,0.3,0.7,0.6,1.1,1C192,190.8,192.5,190.9,193.1,190.9L193.1,190.9z"/>
		
			<linearGradient id="SVGID_00000045605254474815928850000001704234507063433614_" gradientUnits="userSpaceOnUse" x1="-41.5539" y1="73.6833" x2="180.5661" y2="-57.1767" gradientTransform="matrix(1 0 0 -1 0 260)">
			<stop  offset="0" style="stop-color:#A37B57"/>
			<stop  offset="8.000000e-02" style="stop-color:#A67E5B"/>
			<stop  offset="0.16" style="stop-color:#B08A67"/>
			<stop  offset="0.24" style="stop-color:#C19D7B"/>
			<stop  offset="0.32" style="stop-color:#D9B797"/>
			<stop  offset="0.34" style="stop-color:#DEBD9D"/>
			<stop  offset="0.6" style="stop-color:#BA8E65"/>
			<stop  offset="1" style="stop-color:#946A43"/>
		</linearGradient>
		<path style="fill:url(#SVGID_00000045605254474815928850000001704234507063433614_);" d="M-0.3,261.5c-0.3-0.7,0.2-0.9,0.6-1.1
			c2.5-1.3,4.9-2.8,7.4-4c4.8-2.2,9.9-3.5,15-4.3c4-0.6,8-1.1,12.1-1.6c3.8-0.4,7.6-0.7,11.4-1c3.7-0.3,7.5-0.6,11.2-0.9
			c2.9-0.2,5.8-0.3,8.7-0.6c3.2-0.3,6.5-0.5,9.7-1c4-0.6,8-1.2,12-2.1c6-1.3,11.7-3.2,17.3-5.8c3-1.4,5.7-3.1,8.2-5.1
			c1.5-1.2,3.2-2.3,4.8-3.4c0.4-0.3,0.9-0.4,1.3-0.5c0,0.1,0.1,0.2,0.1,0.3c-0.2,0.1-0.4,0.3-0.6,0.4c-1.3,0.9-2.7,1.6-3.9,2.6
			c-5.1,4.5-11.1,7.2-17.4,9.4c-5.8,2-11.8,3.4-17.8,4.3c-5,0.7-10,1.3-15,1.6c-4.7,0.3-9.4,0.6-14,0.9c-4.5,0.3-9,0.7-13.4,1.2
			c-6.4,0.7-12.8,1.4-19.1,2.8c-6.3,1.4-12.1,3.8-17.6,7.2C0.3,261.1,0,261.3-0.3,261.5L-0.3,261.5z"/>
	</g>
	<g>
		<g>
			
				<linearGradient id="SVGID_00000047059568987863537830000004269767314663526808_" gradientUnits="userSpaceOnUse" x1="-30.5321" y1="-14.2946" x2="79.6679" y2="231.0654" gradientTransform="matrix(1 0 0 -1 0 260)">
				<stop  offset="0" style="stop-color:#A37B57"/>
				<stop  offset="8.000000e-02" style="stop-color:#A67E5B"/>
				<stop  offset="0.16" style="stop-color:#B08A67"/>
				<stop  offset="0.24" style="stop-color:#C19D7B"/>
				<stop  offset="0.32" style="stop-color:#D9B797"/>
				<stop  offset="0.34" style="stop-color:#DEBD9D"/>
				<stop  offset="0.6" style="stop-color:#BA8E65"/>
				<stop  offset="1" style="stop-color:#946A43"/>
			</linearGradient>
			<path style="fill:url(#SVGID_00000047059568987863537830000004269767314663526808_);" d="M48.3,165.9c-0.8-0.5-1.5-1-2.3-1.5
				c-6.8-4.3-12.8-9.6-17.6-16.2c-5-6.9-8.3-14.6-10.3-22.9c-0.9-3.8-1.5-7.6-1.8-11.4c-0.2-3.3-0.2-6.6-0.3-10c0-0.2,0-0.4,0.3-0.7
				c0,0.5,0,1,0,1.5c0,2-0.1,4,0.1,6c0.3,3.2,0.6,6.4,1.2,9.5c1,6,2.7,11.8,5.3,17.3c4.4,9.5,10.8,17.3,19.3,23.5
				c1.8,1.3,3.6,2.6,5.4,4c0.3,0.2,0.6,0.5,0.8,0.8C48.3,165.8,48.3,165.8,48.3,165.9L48.3,165.9z"/>
			
				<linearGradient id="SVGID_00000181765323684890905020000001919816111996494982_" gradientUnits="userSpaceOnUse" x1="-27.4119" y1="-15.7037" x2="82.7881" y2="229.6564" gradientTransform="matrix(1 0 0 -1 0 260)">
				<stop  offset="0" style="stop-color:#A37B57"/>
				<stop  offset="8.000000e-02" style="stop-color:#A67E5B"/>
				<stop  offset="0.16" style="stop-color:#B08A67"/>
				<stop  offset="0.24" style="stop-color:#C19D7B"/>
				<stop  offset="0.32" style="stop-color:#D9B797"/>
				<stop  offset="0.34" style="stop-color:#DEBD9D"/>
				<stop  offset="0.6" style="stop-color:#BA8E65"/>
				<stop  offset="1" style="stop-color:#946A43"/>
			</linearGradient>
			<path style="fill:url(#SVGID_00000181765323684890905020000001919816111996494982_);" d="M54.8,183.2c-0.2-1.5-0.3-2.9-0.5-4.4
				c-0.3-2.4-1.3-4.5-3.4-6.1c-2.8-2.1-5.9-3.5-9-4.9c-3-1.4-6.1-2.7-9-4.3c-8-4.3-14.4-10.4-19.4-17.9c-2.7-4-4.2-8.4-5-13.2
				c-0.6-3.7-0.4-7.3-0.5-11c0-4.1,0.4-8.1,0.9-12.1c0.4-2.7,0.9-5.5,1.4-8.2c0.1-0.6,0.3-1.1,0.6-1.7c0.8-1.7,1.8-2.6,4.3-1.9
				c2.4,0.6,4.3,2.1,5.8,4c0.9,1.2,1.7,2.4,2.4,3.7c2.3,4.2,3.7,8.8,4.9,13.4c1.2,4.4,2.3,8.8,3.6,13.1c2.1,6.8,5.2,13,9.3,18.9
				c2.5,3.6,5,7.1,7.3,10.8c3.2,5,5.2,10.6,6,16.5c0.2,1.4,0.3,2.7,0.4,4.1c0,0.4,0,0.8,0,1.1C54.9,183.2,54.8,183.2,54.8,183.2
				L54.8,183.2z M51.4,168.3c-0.2-0.4-0.2-0.8-0.4-1c-1-1.7-2-3.4-3.1-4.9c-1.5-2-3.5-3.5-5.3-5.1c-2.3-2-4.8-3.9-7-6.1
				c-3.2-3.1-5.5-6.9-6.4-11.4c-0.8-3.8-1.2-7.6-1.4-11.4c-0.3-4.4-0.6-8.8-1.4-13.1c-0.7-4.1-2.2-7.9-4.4-11.4
				c-1-1.6-2.2-3.1-3.8-4.2c-1.1-0.8-2.3-1.5-3.7-1.7c-1.3-0.2-2.2,0.1-2.8,1.3c-0.4,0.8-0.8,1.7-0.9,2.5c-0.5,2.7-1,5.4-1.4,8.1
				c-0.3,2.5-0.6,5-0.7,7.6c-0.1,3.5-0.1,7-0.1,10.6c0,3.1,0.5,6.2,1.4,9.2c1.6,5,4,9.4,8,12.9c3.2,2.8,6.7,5,10.6,6.6
				c4,1.7,8.1,3.2,12.2,4.7c2.8,1.1,5.6,2.3,7.9,4.2C49.7,166.5,50.5,167.3,51.4,168.3L51.4,168.3z M27.6,118.4l-0.2,0.1
				c0,0.2,0,0.5,0,0.7c0.2,1.8,0.5,3.6,0.6,5.5c0.3,4.2,0.6,8.5,1.2,12.7c0.6,4,2,7.7,4.5,10.9c1.8,2.4,4,4.4,6.3,6.3
				c2.4,2.1,4.8,4.2,7.1,6.3c0.1,0.1,0.2,0.1,0.4,0.2c-0.3-0.6-0.6-1-0.8-1.3c-1.2-1.8-2.5-3.6-3.7-5.4c-1.9-2.8-3.8-5.4-5.5-8.3
				c-3.8-6.3-6.2-13.1-8-20.2C29,123.3,28.3,120.9,27.6,118.4z M19.6,152.1l-0.1,0.1c0.2,0.2,0.4,0.5,0.6,0.8
				c4.3,4.5,9.2,8.3,14.8,11c3.4,1.6,6.9,3.1,10.3,4.8c2.3,1.1,4.5,2.3,6.5,3.9c0.4,0.3,0.8,0.7,1.2,1c-0.5-1.9-1.3-3.5-2.4-5
				c-2.1-2.8-4.9-4.7-8.1-6c-2.3-0.9-4.6-1.7-6.9-2.6c-5.5-2-10.8-4.3-15.5-7.8C19.8,152.2,19.7,152.2,19.6,152.1L19.6,152.1z"/>
		</g>
		<g>
			
				<linearGradient id="SVGID_00000017492944817986792320000014772864564322528681_" gradientUnits="userSpaceOnUse" x1="-48.8209" y1="-12.6506" x2="61.3791" y2="232.7094" gradientTransform="matrix(1 0 0 -1 0 260)">
				<stop  offset="0" style="stop-color:#A37B57"/>
				<stop  offset="8.000000e-02" style="stop-color:#A67E5B"/>
				<stop  offset="0.16" style="stop-color:#B08A67"/>
				<stop  offset="0.24" style="stop-color:#C19D7B"/>
				<stop  offset="0.32" style="stop-color:#D9B797"/>
				<stop  offset="0.34" style="stop-color:#DEBD9D"/>
				<stop  offset="0.6" style="stop-color:#BA8E65"/>
				<stop  offset="1" style="stop-color:#946A43"/>
			</linearGradient>
			<path style="fill:url(#SVGID_00000017492944817986792320000014772864564322528681_);" d="M34.5,53.5c-0.1,1.4-0.1,2.9-0.2,4.3
				c0,0.4,0,0.9-0.1,1.3c0,1.6,0,3.2,0,4.8c-0.1,4.7,0.2,9.4,0.9,14.1c0.6,4,1.4,7.9,2.5,11.8c1.1,3.9,2.8,7.5,4.7,11.1
				c0.3,0.5,0.5,1.1,0.7,1.7c-0.1-0.2-0.3-0.4-0.4-0.6c-3.2-5.5-5.6-11.4-6.8-17.7c-0.6-3.3-1.3-6.7-1.6-10
				c-0.4-4.1-0.7-8.2-0.3-12.4c0.2-2.8,0.3-5.5,0.4-8.3C34.3,53.6,34.4,53.6,34.5,53.5L34.5,53.5z"/>
			
				<linearGradient id="SVGID_00000036229124744487754400000012973426121200194717_" gradientUnits="userSpaceOnUse" x1="-36.5756" y1="-18.152" x2="73.6244" y2="227.208" gradientTransform="matrix(1 0 0 -1 0 260)">
				<stop  offset="0" style="stop-color:#A37B57"/>
				<stop  offset="8.000000e-02" style="stop-color:#A67E5B"/>
				<stop  offset="0.16" style="stop-color:#B08A67"/>
				<stop  offset="0.24" style="stop-color:#C19D7B"/>
				<stop  offset="0.32" style="stop-color:#D9B797"/>
				<stop  offset="0.34" style="stop-color:#DEBD9D"/>
				<stop  offset="0.6" style="stop-color:#BA8E65"/>
				<stop  offset="1" style="stop-color:#946A43"/>
			</linearGradient>
			<path style="fill:url(#SVGID_00000036229124744487754400000012973426121200194717_);" d="M39.7,71.7c0.1,1.1,0.2,2.2,0.3,3.3
				c0.3,3.6,1.1,7.2,1.9,10.7c1.4,5.8,3.2,11.6,5.8,17c1.7,3.4,3.6,6.6,6.3,9.2c0.2,0.2,0.3,0.3,0.3,0.6c-1.5-1.3-2.9-2.7-4-4.3
				c-2.7-3.8-4.5-8-6.1-12.4c-1.8-5.2-3.2-10.5-4-15.9c-0.3-2.3-0.6-4.6-0.8-6.8c0-0.4,0-0.9,0-1.3C39.6,71.7,39.7,71.7,39.7,71.7
				L39.7,71.7z"/>
			
				<linearGradient id="SVGID_00000086654073453608825660000013528765029254909089_" gradientUnits="userSpaceOnUse" x1="-52.9498" y1="-10.8001" x2="57.2502" y2="234.5599" gradientTransform="matrix(1 0 0 -1 0 260)">
				<stop  offset="0" style="stop-color:#A37B57"/>
				<stop  offset="8.000000e-02" style="stop-color:#A67E5B"/>
				<stop  offset="0.16" style="stop-color:#B08A67"/>
				<stop  offset="0.24" style="stop-color:#C19D7B"/>
				<stop  offset="0.32" style="stop-color:#D9B797"/>
				<stop  offset="0.34" style="stop-color:#DEBD9D"/>
				<stop  offset="0.6" style="stop-color:#BA8E65"/>
				<stop  offset="1" style="stop-color:#946A43"/>
			</linearGradient>
			<path style="fill:url(#SVGID_00000086654073453608825660000013528765029254909089_);" d="M19.3,69c0.5,2.4,1,4.9,1.6,7.3
				c1.8,7.2,4,14.2,7.6,20.7c2.5,4.5,5.5,8.7,9.5,11.9c0.1,0.1,0.2,0.2,0.2,0.4c-1.4-0.9-2.7-2-3.9-3.3c-3.7-4-6.6-8.6-8.7-13.7
				c-3.1-7.3-5.2-14.8-6.4-22.7c0-0.2-0.1-0.4-0.1-0.7C19.2,68.9,19.2,68.9,19.3,69L19.3,69z"/>
			
				<linearGradient id="SVGID_00000054961756639029885710000015420736171204633739_" gradientUnits="userSpaceOnUse" x1="-28.9705" y1="-21.5698" x2="81.2295" y2="223.7902" gradientTransform="matrix(1 0 0 -1 0 260)">
				<stop  offset="0" style="stop-color:#A37B57"/>
				<stop  offset="8.000000e-02" style="stop-color:#A67E5B"/>
				<stop  offset="0.16" style="stop-color:#B08A67"/>
				<stop  offset="0.24" style="stop-color:#C19D7B"/>
				<stop  offset="0.32" style="stop-color:#D9B797"/>
				<stop  offset="0.34" style="stop-color:#DEBD9D"/>
				<stop  offset="0.6" style="stop-color:#BA8E65"/>
				<stop  offset="1" style="stop-color:#946A43"/>
			</linearGradient>
			<path style="fill:url(#SVGID_00000054961756639029885710000015420736171204633739_);" d="M61.3,97.7c0.1-0.9,0.2-1.8,0.2-2.7
				c0.3-2.8,0.6-5.5,0.9-8.2c0.1-1.1,0.2-2.1,0.3-3.2c0.1-1.8,0.2-3.7,0.3-5.5c0.2-3.8,0.5-7.6,0.7-11.3c0.1-1.9,0.2-3.7,0.3-5.6
				c0.1-1.6,0.2-3.2,0.4-4.8c-0.1,2.2-0.2,4.3-0.3,6.5c-0.2,3.6-0.3,7.2-0.5,10.8c-0.1,2.2-0.1,4.3-0.3,6.4
				c-0.2,2.7-0.4,5.4-0.7,8.2c-0.2,2.3-0.5,4.6-0.8,6.8c-0.1,0.9-0.3,1.7-0.4,2.6C61.4,97.7,61.3,97.7,61.3,97.7L61.3,97.7z"/>
			
				<linearGradient id="SVGID_00000005236622676067663300000012181644884435979158_" gradientUnits="userSpaceOnUse" x1="-10.4358" y1="-29.8919" x2="99.7642" y2="215.4681" gradientTransform="matrix(1 0 0 -1 0 260)">
				<stop  offset="0" style="stop-color:#A37B57"/>
				<stop  offset="8.000000e-02" style="stop-color:#A67E5B"/>
				<stop  offset="0.16" style="stop-color:#B08A67"/>
				<stop  offset="0.24" style="stop-color:#C19D7B"/>
				<stop  offset="0.32" style="stop-color:#D9B797"/>
				<stop  offset="0.34" style="stop-color:#DEBD9D"/>
				<stop  offset="0.6" style="stop-color:#BA8E65"/>
				<stop  offset="1" style="stop-color:#946A43"/>
			</linearGradient>
			<path style="fill:url(#SVGID_00000005236622676067663300000012181644884435979158_);" d="M65.1,115.3c0.1-0.1,0.2-0.3,0.3-0.4
				c3-2.1,5.3-4.9,7.3-7.8c2.7-3.9,4.8-8.1,6.9-12.4c1.2-2.5,2.3-4.9,3.5-7.4c0.1-0.2,0.2-0.4,0.5-0.5c-0.5,1.3-1.1,2.7-1.6,4
				c-2.6,5.8-5.2,11.5-8.8,16.8c-1.7,2.5-3.5,4.8-5.8,6.7C66.7,114.7,66,115.2,65.1,115.3z"/>
			
				<linearGradient id="SVGID_00000113346623699148119470000017698392575531614094_" gradientUnits="userSpaceOnUse" x1="-33.2506" y1="-19.6497" x2="76.9494" y2="225.7103" gradientTransform="matrix(1 0 0 -1 0 260)">
				<stop  offset="0" style="stop-color:#A37B57"/>
				<stop  offset="8.000000e-02" style="stop-color:#A67E5B"/>
				<stop  offset="0.16" style="stop-color:#B08A67"/>
				<stop  offset="0.24" style="stop-color:#C19D7B"/>
				<stop  offset="0.32" style="stop-color:#D9B797"/>
				<stop  offset="0.34" style="stop-color:#DEBD9D"/>
				<stop  offset="0.6" style="stop-color:#BA8E65"/>
				<stop  offset="1" style="stop-color:#946A43"/>
			</linearGradient>
			<path style="fill:url(#SVGID_00000113346623699148119470000017698392575531614094_);" d="M56.2,99.1c-1.4-9.3-2.8-18.5-4.2-27.8
				c0.1,0,0.2,0,0.3,0C54,80.4,55.5,89.7,56.2,99.1z"/>
			
				<linearGradient id="SVGID_00000093891248352708548990000011992832821305670568_" gradientUnits="userSpaceOnUse" x1="-36.8952" y1="-18.0122" x2="73.2948" y2="227.3578" gradientTransform="matrix(1 0 0 -1 0 260)">
				<stop  offset="0" style="stop-color:#A37B57"/>
				<stop  offset="8.000000e-02" style="stop-color:#A67E5B"/>
				<stop  offset="0.16" style="stop-color:#B08A67"/>
				<stop  offset="0.24" style="stop-color:#C19D7B"/>
				<stop  offset="0.32" style="stop-color:#D9B797"/>
				<stop  offset="0.34" style="stop-color:#DEBD9D"/>
				<stop  offset="0.6" style="stop-color:#BA8E65"/>
				<stop  offset="1" style="stop-color:#946A43"/>
			</linearGradient>
			<path style="fill:url(#SVGID_00000093891248352708548990000011992832821305670568_);" d="M60.8,75.7c0-0.4-0.1-0.7-0.1-1.1
				c-0.1-4.2-0.2-8.4-0.3-12.5c-0.1-4.1-0.2-8.1-0.3-12.2c0-0.9,0-1.9,0-2.8C60.3,48.2,61.2,73.7,60.8,75.7z"/>
			
				<linearGradient id="SVGID_00000037653038950839020910000001097260816622263474_" gradientUnits="userSpaceOnUse" x1="-15.1068" y1="-27.7915" x2="95.0832" y2="217.5686" gradientTransform="matrix(1 0 0 -1 0 260)">
				<stop  offset="0" style="stop-color:#A37B57"/>
				<stop  offset="8.000000e-02" style="stop-color:#A67E5B"/>
				<stop  offset="0.16" style="stop-color:#B08A67"/>
				<stop  offset="0.24" style="stop-color:#C19D7B"/>
				<stop  offset="0.32" style="stop-color:#D9B797"/>
				<stop  offset="0.34" style="stop-color:#DEBD9D"/>
				<stop  offset="0.6" style="stop-color:#BA8E65"/>
				<stop  offset="1" style="stop-color:#946A43"/>
			</linearGradient>
			<path style="fill:url(#SVGID_00000037653038950839020910000001097260816622263474_);" d="M86.1,62.4c-1.3,2.9-2.6,5.9-3.8,8.8
				c-1.3,3-2.5,6-3.8,9.1C78.7,78,84.7,63.5,86.1,62.4z"/>
			
				<linearGradient id="SVGID_00000056415178323608294790000002850471956413489298_" gradientUnits="userSpaceOnUse" x1="-35.0959" y1="-18.8174" x2="75.0941" y2="226.5427" gradientTransform="matrix(1 0 0 -1 0 260)">
				<stop  offset="0" style="stop-color:#A37B57"/>
				<stop  offset="8.000000e-02" style="stop-color:#A67E5B"/>
				<stop  offset="0.16" style="stop-color:#B08A67"/>
				<stop  offset="0.24" style="stop-color:#C19D7B"/>
				<stop  offset="0.32" style="stop-color:#D9B797"/>
				<stop  offset="0.34" style="stop-color:#DEBD9D"/>
				<stop  offset="0.6" style="stop-color:#BA8E65"/>
				<stop  offset="1" style="stop-color:#946A43"/>
			</linearGradient>
			<path style="fill:url(#SVGID_00000056415178323608294790000002850471956413489298_);" d="M43.7,85.4c1,3.4,1.8,6.9,3,10.3
				c1.2,3.4,2.7,6.7,4,9.8C47.8,101.4,43.6,89.6,43.7,85.4L43.7,85.4z"/>
			
				<linearGradient id="SVGID_00000039120422503842906930000011377742570467423393_" gradientUnits="userSpaceOnUse" x1="-51.4178" y1="-11.4865" x2="58.7722" y2="233.8735" gradientTransform="matrix(1 0 0 -1 0 260)">
				<stop  offset="0" style="stop-color:#A37B57"/>
				<stop  offset="8.000000e-02" style="stop-color:#A67E5B"/>
				<stop  offset="0.16" style="stop-color:#B08A67"/>
				<stop  offset="0.24" style="stop-color:#C19D7B"/>
				<stop  offset="0.32" style="stop-color:#D9B797"/>
				<stop  offset="0.34" style="stop-color:#DEBD9D"/>
				<stop  offset="0.6" style="stop-color:#BA8E65"/>
				<stop  offset="1" style="stop-color:#946A43"/>
			</linearGradient>
			<path style="fill:url(#SVGID_00000039120422503842906930000011377742570467423393_);" d="M44.8,48.4c0.1,5.9,0.2,11.9,0.2,18
				c-0.9-5.7-1.2-16.6-0.5-18C44.6,48.4,44.7,48.4,44.8,48.4L44.8,48.4z"/>
			
				<linearGradient id="SVGID_00000134213742754200048040000013452113727364827042_" gradientUnits="userSpaceOnUse" x1="-30.0599" y1="-21.08" x2="80.1401" y2="224.28" gradientTransform="matrix(1 0 0 -1 0 260)">
				<stop  offset="0" style="stop-color:#A37B57"/>
				<stop  offset="8.000000e-02" style="stop-color:#A67E5B"/>
				<stop  offset="0.16" style="stop-color:#B08A67"/>
				<stop  offset="0.24" style="stop-color:#C19D7B"/>
				<stop  offset="0.32" style="stop-color:#D9B797"/>
				<stop  offset="0.34" style="stop-color:#DEBD9D"/>
				<stop  offset="0.6" style="stop-color:#BA8E65"/>
				<stop  offset="1" style="stop-color:#946A43"/>
			</linearGradient>
			<path style="fill:url(#SVGID_00000134213742754200048040000013452113727364827042_);" d="M74,40.5c0.5,3.1,0.4,6.2,0.3,9.3
				s-0.2,6.2-0.4,9.3c-0.1-6.2-0.2-12.4-0.3-18.6C73.8,40.5,73.9,40.5,74,40.5z"/>
			
				<linearGradient id="SVGID_00000091711384065041005590000009057102361916453560_" gradientUnits="userSpaceOnUse" x1="-6.4768" y1="-31.667" x2="103.7232" y2="213.683" gradientTransform="matrix(1 0 0 -1 0 260)">
				<stop  offset="0" style="stop-color:#A37B57"/>
				<stop  offset="8.000000e-02" style="stop-color:#A67E5B"/>
				<stop  offset="0.16" style="stop-color:#B08A67"/>
				<stop  offset="0.24" style="stop-color:#C19D7B"/>
				<stop  offset="0.32" style="stop-color:#D9B797"/>
				<stop  offset="0.34" style="stop-color:#DEBD9D"/>
				<stop  offset="0.6" style="stop-color:#BA8E65"/>
				<stop  offset="1" style="stop-color:#946A43"/>
			</linearGradient>
			<path style="fill:url(#SVGID_00000091711384065041005590000009057102361916453560_);" d="M91.8,72.9c-2.7,6.4-5.5,12.8-8.2,19.1
				c-0.1,0-0.2-0.1-0.3-0.1c2.8-6.3,5.1-12.9,8.2-19.2C91.6,72.8,91.7,72.8,91.8,72.9L91.8,72.9z"/>
			
				<linearGradient id="SVGID_00000005955518426110698050000012496416232246764964_" gradientUnits="userSpaceOnUse" x1="-70.8624" y1="-2.7489" x2="39.3376" y2="242.6011" gradientTransform="matrix(1 0 0 -1 0 260)">
				<stop  offset="0" style="stop-color:#A37B57"/>
				<stop  offset="8.000000e-02" style="stop-color:#A67E5B"/>
				<stop  offset="0.16" style="stop-color:#B08A67"/>
				<stop  offset="0.24" style="stop-color:#C19D7B"/>
				<stop  offset="0.32" style="stop-color:#D9B797"/>
				<stop  offset="0.34" style="stop-color:#DEBD9D"/>
				<stop  offset="0.6" style="stop-color:#BA8E65"/>
				<stop  offset="1" style="stop-color:#946A43"/>
			</linearGradient>
			<path style="fill:url(#SVGID_00000005955518426110698050000012496416232246764964_);" d="M20.2,50.3c0.1,0.1,0.3,0.1,0.3,0.2
				c0.4,5.2,0.9,10.5,1.3,15.8C20.5,60.7,19.6,51.9,20.2,50.3z"/>
			
				<linearGradient id="SVGID_00000103243987873175596780000016400789757780210871_" gradientUnits="userSpaceOnUse" x1="-8.0795" y1="-30.9447" x2="102.1105" y2="214.4153" gradientTransform="matrix(1 0 0 -1 0 260)">
				<stop  offset="0" style="stop-color:#A37B57"/>
				<stop  offset="8.000000e-02" style="stop-color:#A67E5B"/>
				<stop  offset="0.16" style="stop-color:#B08A67"/>
				<stop  offset="0.24" style="stop-color:#C19D7B"/>
				<stop  offset="0.32" style="stop-color:#D9B797"/>
				<stop  offset="0.34" style="stop-color:#DEBD9D"/>
				<stop  offset="0.6" style="stop-color:#BA8E65"/>
				<stop  offset="1" style="stop-color:#946A43"/>
			</linearGradient>
			<path style="fill:url(#SVGID_00000103243987873175596780000016400789757780210871_);" d="M93.7,64.6c1.8-4.4,3.6-8.7,5.4-13.1
				c0-0.1,0.2,0,0.5-0.1C97.9,56,96,60.4,93.7,64.6L93.7,64.6z"/>
			
				<linearGradient id="SVGID_00000069366713540013535840000010718892695025907370_" gradientUnits="userSpaceOnUse" x1="-10.7546" y1="-29.7524" x2="99.4354" y2="215.6076" gradientTransform="matrix(1 0 0 -1 0 260)">
				<stop  offset="0" style="stop-color:#A37B57"/>
				<stop  offset="8.000000e-02" style="stop-color:#A67E5B"/>
				<stop  offset="0.16" style="stop-color:#B08A67"/>
				<stop  offset="0.24" style="stop-color:#C19D7B"/>
				<stop  offset="0.32" style="stop-color:#D9B797"/>
				<stop  offset="0.34" style="stop-color:#DEBD9D"/>
				<stop  offset="0.6" style="stop-color:#BA8E65"/>
				<stop  offset="1" style="stop-color:#946A43"/>
			</linearGradient>
			<path style="fill:url(#SVGID_00000069366713540013535840000010718892695025907370_);" d="M71.4,105.8c2.2-4.3,4.4-8.6,6.6-13
				c-1.7,4.6-3.7,9-6.4,13.1C71.5,105.9,71.4,105.8,71.4,105.8z"/>
			
				<linearGradient id="SVGID_00000174603810496562098080000006419735468630426288_" gradientUnits="userSpaceOnUse" x1="-38.9516" y1="-17.0893" x2="71.2484" y2="228.2707" gradientTransform="matrix(1 0 0 -1 0 260)">
				<stop  offset="0" style="stop-color:#A37B57"/>
				<stop  offset="8.000000e-02" style="stop-color:#A67E5B"/>
				<stop  offset="0.16" style="stop-color:#B08A67"/>
				<stop  offset="0.24" style="stop-color:#C19D7B"/>
				<stop  offset="0.32" style="stop-color:#D9B797"/>
				<stop  offset="0.34" style="stop-color:#DEBD9D"/>
				<stop  offset="0.6" style="stop-color:#BA8E65"/>
				<stop  offset="1" style="stop-color:#946A43"/>
			</linearGradient>
			<path style="fill:url(#SVGID_00000174603810496562098080000006419735468630426288_);" d="M65.7,39.3c1,1.2,1,4.8,0,9.6V39.3z"/>
			
				<linearGradient id="SVGID_00000126303310291211205870000007182410170548524944_" gradientUnits="userSpaceOnUse" x1="-50.9488" y1="-11.6906" x2="59.2412" y2="233.6694" gradientTransform="matrix(1 0 0 -1 0 260)">
				<stop  offset="0" style="stop-color:#A37B57"/>
				<stop  offset="8.000000e-02" style="stop-color:#A67E5B"/>
				<stop  offset="0.16" style="stop-color:#B08A67"/>
				<stop  offset="0.24" style="stop-color:#C19D7B"/>
				<stop  offset="0.32" style="stop-color:#D9B797"/>
				<stop  offset="0.34" style="stop-color:#DEBD9D"/>
				<stop  offset="0.6" style="stop-color:#BA8E65"/>
				<stop  offset="1" style="stop-color:#946A43"/>
			</linearGradient>
			<path style="fill:url(#SVGID_00000126303310291211205870000007182410170548524944_);" d="M46.7,49.9c0.3,1.7-0.1,3.5,0,5.2
				c0,1.8-0.2,3.5-0.3,5.2V49.9C46.5,49.9,46.6,49.9,46.7,49.9L46.7,49.9z"/>
			
				<linearGradient id="SVGID_00000049191624078476733690000002123445477946080935_" gradientUnits="userSpaceOnUse" x1="-70.9454" y1="-2.7176" x2="39.2546" y2="242.6424" gradientTransform="matrix(1 0 0 -1 0 260)">
				<stop  offset="0" style="stop-color:#A37B57"/>
				<stop  offset="8.000000e-02" style="stop-color:#A67E5B"/>
				<stop  offset="0.16" style="stop-color:#B08A67"/>
				<stop  offset="0.24" style="stop-color:#C19D7B"/>
				<stop  offset="0.32" style="stop-color:#D9B797"/>
				<stop  offset="0.34" style="stop-color:#DEBD9D"/>
				<stop  offset="0.6" style="stop-color:#BA8E65"/>
				<stop  offset="1" style="stop-color:#946A43"/>
			</linearGradient>
			<path style="fill:url(#SVGID_00000049191624078476733690000002123445477946080935_);" d="M22,52.1c0.1,2.4,0.2,4.8,0.4,7.3
				c-0.6-2.3-0.9-5.6-0.6-7.3C21.8,52.1,21.9,52.1,22,52.1L22,52.1z"/>
			
				<linearGradient id="SVGID_00000062151612044771606010000001432168141422492350_" gradientUnits="userSpaceOnUse" x1="-17.2996" y1="-26.8102" x2="92.8904" y2="218.5498" gradientTransform="matrix(1 0 0 -1 0 260)">
				<stop  offset="0" style="stop-color:#A37B57"/>
				<stop  offset="8.000000e-02" style="stop-color:#A67E5B"/>
				<stop  offset="0.16" style="stop-color:#B08A67"/>
				<stop  offset="0.24" style="stop-color:#C19D7B"/>
				<stop  offset="0.32" style="stop-color:#D9B797"/>
				<stop  offset="0.34" style="stop-color:#DEBD9D"/>
				<stop  offset="0.6" style="stop-color:#BA8E65"/>
				<stop  offset="1" style="stop-color:#946A43"/>
			</linearGradient>
			<path style="fill:url(#SVGID_00000062151612044771606010000001432168141422492350_);" d="M82.8,64.8c-1.1,2.2-2.2,4.3-3.3,6.6
				C79.9,69.1,81.7,65.3,82.8,64.8z"/>
			
				<linearGradient id="SVGID_00000052788121462777147750000006689018888129827725_" gradientUnits="userSpaceOnUse" x1="-30.075" y1="-21.0722" x2="80.125" y2="224.2878" gradientTransform="matrix(1 0 0 -1 0 260)">
				<stop  offset="0" style="stop-color:#A37B57"/>
				<stop  offset="8.000000e-02" style="stop-color:#A67E5B"/>
				<stop  offset="0.16" style="stop-color:#B08A67"/>
				<stop  offset="0.24" style="stop-color:#C19D7B"/>
				<stop  offset="0.32" style="stop-color:#D9B797"/>
				<stop  offset="0.34" style="stop-color:#DEBD9D"/>
				<stop  offset="0.6" style="stop-color:#BA8E65"/>
				<stop  offset="1" style="stop-color:#946A43"/>
			</linearGradient>
			<path style="fill:url(#SVGID_00000052788121462777147750000006689018888129827725_);" d="M75.7,49.2c-0.1-2.2-0.2-4.5-0.4-6.7
				c0.1,0,0.2,0,0.3,0c0.4,0.7,0.1,1.4,0.2,2.1c0.1,0.8,0.1,1.6,0.1,2.3c0,0.8,0,1.5,0,2.3C75.8,49.2,75.7,49.2,75.7,49.2L75.7,49.2
				z"/>
		</g>
		
			<linearGradient id="SVGID_00000082342567858542732110000002099261709958726277_" gradientUnits="userSpaceOnUse" x1="-40.6331" y1="-16.3296" x2="69.5669" y2="229.0304" gradientTransform="matrix(1 0 0 -1 0 260)">
			<stop  offset="0" style="stop-color:#A37B57"/>
			<stop  offset="8.000000e-02" style="stop-color:#A67E5B"/>
			<stop  offset="0.16" style="stop-color:#B08A67"/>
			<stop  offset="0.24" style="stop-color:#C19D7B"/>
			<stop  offset="0.32" style="stop-color:#D9B797"/>
			<stop  offset="0.34" style="stop-color:#DEBD9D"/>
			<stop  offset="0.6" style="stop-color:#BA8E65"/>
			<stop  offset="1" style="stop-color:#946A43"/>
		</linearGradient>
		<path style="fill:url(#SVGID_00000082342567858542732110000002099261709958726277_);" d="M25.7,59.6c0.3-1.9,0.5-3.6,0.9-5.3
			c0.5-2.7,1.2-5.4,2.4-8c0.5-1.2,1.2-2.3,2.3-3.1c1.2-0.9,2.4-1.2,3.8-0.5c1.6,0.9,3.3,1.4,5.1,1.7c1.6,0.2,2.9,1,3.8,2.4
			c0.9,1.4,2.1,2.5,3.4,3.5c1.6,1.2,2.9,2.8,4,4.4c0.2,0.3,0.4,0.6,0.8,0.8c0-1.2,0-2.3,0-3.5c0.2-2.8,0.8-5.6,1.9-8.2
			c1.5-3.6,5.4-5.7,9.2-4.9c1.6,0.3,3.1,0.3,4.7-0.2c2-0.7,3.9-0.2,5.6,1.1c1.3,0.9,2.2,2.1,2.9,3.5c1.5,2.5,2.3,5.3,2.8,8.2
			c1,5.2,0.4,10.3-1,15.4c-0.1,0.3-0.2,0.6-0.3,1c0.2-0.1,0.3-0.1,0.3-0.1c2.3-2.3,5.1-4.2,7.7-6.1c1.3-1,2.4-2.2,3.6-3.4
			c1-1.1,1.9-2.4,2.9-3.5c1.4-1.6,3.2-2.9,5.3-3.6c0.9-0.3,1.8-0.4,2.8-0.4c1.5,0,2.5,0.8,2.9,2.3c0.5,1.6,0.3,3.2-0.1,4.7
			c-0.6,2.4-1.7,4.7-2.8,6.9c-1.7,3.5-3.6,6.9-5.1,10.4c-2,4.5-3.6,9.2-5.6,13.7c-2,4.6-4.2,9.1-7.1,13.2c-2.4,3.3-5.2,6.3-8.5,8.9
			c-2.7,2.1-5.7,3.5-8.9,4.6c-0.9,0.3-1.9,0.7-2.8,1.2c-1.8,1.1-2.8,2.7-3.2,4.7c-0.1,0.6-0.2,1.3-0.5,1.9c-0.2-0.6-0.4-1.1-0.6-1.7
			c-1-3.2-3.1-5-6.5-5.8c-9.5-2.1-17.3-7.2-23.1-15.1c-3.5-4.8-6.1-10.1-8.2-15.7C18,78.9,16,72.3,14.8,65.6
			c-0.7-4-0.9-8.1-0.7-12.1c0.1-1.6,0.5-3.2,1.2-4.8c0.1-0.3,0.3-0.6,0.5-0.9c0.8-1.2,1.8-1.3,2.9-0.3c0.5,0.5,0.9,1.1,1.3,1.6
			c0.9,1.3,1.8,2.5,2.8,3.8C24.3,54.9,25.1,56.6,25.7,59.6L25.7,59.6z M26.1,65.7c0,4.6,0.4,9.1,1.3,13.6c1.3,6.4,3.4,12.4,6.7,18
			c4.1,7,9.5,12.7,16.9,16.3c1,0.5,2,0.8,3.1,1c1.9,0.3,3-0.3,3.8-2.1c0.3-0.7,0.4-1.4,0.5-2.2c0.1-0.7,0.1-1.4,0.1-2.1
			c0.2-3.9,0.5-7.9,0.6-11.8c0.1-4.6-0.4-9.2-0.9-13.8c-0.5-4.7-1.1-9.4-2.2-14.1c-1-4.8-2.7-9.3-5.4-13.4c-1.1-1.7-2.3-3.2-3.9-4.3
			c-1.3-1-2.5-2.1-3.4-3.5c-0.8-1.3-2-2-3.5-2.2c-1.8-0.2-3.5-0.7-5.1-1.6c-1.3-0.7-2.5-0.5-3.4,0.5c-0.8,0.8-1.5,1.8-1.9,2.8
			c-1.8,3.9-2.6,8-3,12.2C26.2,61.1,26.2,63.4,26.1,65.7L26.1,65.7z M103.1,55.2c0,0,0-0.2,0-0.4c-0.1-2.6-1.5-3.7-4-3.2
			c-2.4,0.5-4.4,1.8-6,3.6c-0.9,1-1.8,2.1-2.7,3.2c-1.4,1.8-3,3.3-4.9,4.5c-1.1,0.7-2.1,1.5-3.2,2.3C78,68.6,74.7,72.8,72,77.5
			c-3.2,5.7-5.2,11.9-7,18.2c-1.3,4.8-2.5,9.7-4.1,14.5c-0.2,0.7-0.3,1.4-0.3,2.1c0,1.4,0.6,2.1,1.9,2.5c1.2,0.4,2.5,0.4,3.7-0.1
			c3.4-1.2,6.4-2.9,9.1-5.3c4.4-3.9,8-8.5,10.7-13.7c2-3.9,3.8-7.9,5.4-12c2.5-6.6,5.2-13.1,8.7-19.2c0.8-1.5,1.5-3,2.1-4.6
			C102.7,58.6,103.1,57,103.1,55.2L103.1,55.2z M58.9,112.2c0.1,0,0.2,0.1,0.3,0.1c0.1-0.3,0.3-0.5,0.4-0.8c0.9-2.8,2-5.5,2.8-8.3
			c1.4-5,2.6-10.1,4.2-15c2.2-6.4,5-12.5,9.4-17.7c0.7-0.8,1.1-1.7,1.4-2.7c1.5-5,2.1-10,1.4-15.2c-0.4-2.9-1.1-5.7-2.6-8.2
			c-0.7-1.2-1.6-2.5-2.6-3.5c-1.7-1.7-3.8-2.3-6.1-1.4c-1.4,0.5-2.7,0.5-4.1,0.2c-3.1-0.8-7.8,0.9-9.1,4.9c-0.8,2.5-1.4,4.9-1.7,7.5
			c-0.2,2.5-0.1,4.8,1,7.2c2.9,5.9,3.9,12.4,4.7,18.9c0.4,3.3,0.8,6.6,1,9.9c0.2,3,0.4,5.9,0.3,8.9c-0.1,4.5-0.4,9-0.7,13.5
			C59,111.1,59,111.7,58.9,112.2L58.9,112.2z M17.2,47.4c-1.1,0.4-1.4,1.4-1.7,2.3c-0.8,2.1-0.9,4.3-0.9,6.5c0,3.8,0.5,7.5,1.2,11.2
			c1.1,5.6,2.7,11,4.7,16.3c2.1,5.9,4.7,11.5,8.4,16.6c5.4,7.5,12.6,12.5,21.5,14.9c0.8,0.2,1.6,0.3,2.6,0.4
			c-0.1-0.3-0.1-0.4-0.2-0.4c-0.3-0.2-0.6-0.3-0.8-0.4c-4.3-2.1-8.3-4.7-11.6-8.2c-2.5-2.6-4.6-5.5-6.5-8.6
			C28.5,89,26.1,79.3,25.6,69c-0.1-2.7-0.1-5.3-0.3-8c-0.2-2.4-0.8-4.6-2.2-6.6c-1.4-2-2.8-3.9-4.2-5.9C18.5,48,18,47.5,17.2,47.4
			L17.2,47.4z"/>
		
			<linearGradient id="SVGID_00000065058408452583178130000009279452498232470190_" gradientUnits="userSpaceOnUse" x1="8.8074" y1="-38.5333" x2="118.9974" y2="206.8267" gradientTransform="matrix(1 0 0 -1 0 260)">
			<stop  offset="0" style="stop-color:#A37B57"/>
			<stop  offset="8.000000e-02" style="stop-color:#A67E5B"/>
			<stop  offset="0.16" style="stop-color:#B08A67"/>
			<stop  offset="0.24" style="stop-color:#C19D7B"/>
			<stop  offset="0.32" style="stop-color:#D9B797"/>
			<stop  offset="0.34" style="stop-color:#DEBD9D"/>
			<stop  offset="0.6" style="stop-color:#BA8E65"/>
			<stop  offset="1" style="stop-color:#946A43"/>
		</linearGradient>
		<path style="fill:url(#SVGID_00000065058408452583178130000009279452498232470190_);" d="M50.9,272.5c0-1.5,0-3,0.1-4.6
			c0-2,0.2-4,0.2-6c0.1-4.6,0.1-9.2,0.3-13.9c0.2-4.8,0.7-9.7,1.1-14.5c0.3-4.1,1.2-8.1,1-12.3c-0.1-2.4-0.4-4.8-0.8-7.2
			c-0.8-4.9-0.9-9.7,0-14.6c0.7-3.5,1.2-7.1,1.7-10.6c0.3-2.5,0.4-5,0.5-7.5c0.2-6.1,1.3-12.1,3.2-17.9c0.8-2.6,1.6-5.2,2.1-7.9
			c0.4-2,0.5-4,0.5-6.1c0-4.1-0.7-8.1-1.4-12.1c-0.8-4.9-1-9.9-0.6-14.8c0.1-1.4,0.2-2.8,0.3-4.2c0-0.3,0.2-0.7,0.3-1
			c0.1,0,0.2,0,0.3,0.1c0,0.5-0.1,0.9-0.2,1.4c-0.1,2.5-0.2,4.9-0.3,7.4c-0.2,4.8,0.5,9.5,1.3,14.2c0.8,4.2,1.2,8.5,0.8,12.7
			c-0.2,2.4-0.9,4.8-1.5,7.2c-0.9,3.4-1.9,6.7-2.8,10.1c-0.8,3.3-1.2,6.8-1.3,10.2c-0.3,5.9-0.8,11.8-2,17.7c-0.5,2.5-0.9,5.1-1,7.7
			c-0.1,2.2,0.2,4.4,0.5,6.6c0.5,3.5,1.2,7,1,10.6c-0.1,2.2-0.4,4.4-0.6,6.6c-0.3,2.7-0.6,5.4-0.8,8c-0.3,3.2-0.5,6.5-0.7,9.7
			c-0.2,3.7-0.2,7.4-0.3,11c-0.1,4.1-0.2,8.2-0.3,12.3c0,0.5-0.1,1-0.2,1.5L50.9,272.5L50.9,272.5z"/>
	</g>
	<g>
		<path class="st50" d="M182.7,115.4c-0.9-0.1-1.9-0.2-2.8-0.2c-4,0.2-7.9,0.4-11.9,0.7c-3.7,0.2-7.4,0.8-11.1,1.4
			c-3,0.5-5.9,1.3-8.6,2.6c-5.9,2.8-12,5.1-18.1,7.5c-6.2,2.5-11.9,5.6-17.2,9.7c-1.6,1.3-3.1,2.8-4.6,4.2c-1.5,1.5-2.9,3.1-4.6,4.5
			c0.2-0.4,0.4-0.8,0.7-1.1c2.2-2.6,4.3-5.3,7-7.4c4.1-3.2,8.5-6,13.2-8.2c4.3-2.1,8.8-3.8,13.2-5.5c3.1-1.2,6.1-2.6,9.1-4
			c3.7-1.6,7.5-2.7,11.4-3.2c3.1-0.4,6.1-0.8,9.2-1.1c1.7-0.2,3.4-0.2,5-0.3c0.9-0.1,1.9-0.2,2.8-0.1c2.2,0,4.4,0.1,6.6,0.2
			C182.3,115.1,182.5,115.3,182.7,115.4C182.7,115.3,182.7,115.4,182.7,115.4L182.7,115.4z"/>
		<path class="st50" d="M98.1,153.6c0.4-0.8,0.8-1.7,1.3-2.4c2.3-3.2,4.7-6.3,7-9.6c2-3,3.8-6.1,5.9-9.1c2.8-4.2,6-8.1,10-11.3
			c6.1-4.8,12.9-8.1,20.5-9.7c2.2-0.4,4.5-0.6,6.7-0.8c4.4-0.3,8.7-0.7,13.1-0.9c3.6-0.2,7.3-0.4,10.9-0.5c3.3-0.1,6.5,0.6,9.6,1.7
			c1.2,0.4,2.3,1,3.3,1.7c1.6,1.2,2,2.8,1.1,4.6c-0.4,0.8-0.9,1.6-1.5,2.2c-4.5,3.9-8.5,8.3-12.7,12.5c-3.6,3.6-7.8,5.8-12.8,6.8
			c-4,0.8-7.9,0.7-11.9-0.2c-4.4-1-8.9-2.1-13.4-3c-5.8-1.2-11.5-1.2-17.1,0.6c-4.4,1.3-8,3.9-11.2,7c-3.2,3.2-6.1,6.7-8.5,10.6
			c0,0-0.1,0-0.1,0C98.3,153.7,98.2,153.6,98.1,153.6L98.1,153.6z M107,141.9c0.1,0.1,0.1,0.1,0.2,0.1c0.4-0.3,0.8-0.7,1.2-1
			c2.8-2.4,5.8-4.2,9.3-5.4c5.7-1.9,11.5-1.9,17.4-0.8c3.8,0.8,7.6,1.7,11.4,2.6c3.9,0.9,7.8,1.7,11.8,1.1c4.5-0.6,8.7-2,12.2-4.9
			c1.6-1.4,3.3-2.8,4.7-4.4c3-3.2,6.1-6.3,9.4-9.2c0.7-0.6,1.4-1.3,1.9-2.1c1.4-2,1.1-3.8-1-5.1c-1.2-0.8-2.7-1.3-4.1-1.7
			c-4.9-1.3-9.9-1.5-14.7,0.4c-2.8,1.1-5.6,2-8.4,2.9c-2.6,0.9-5.3,1.4-8,1.6c-3.2,0.2-6.4,0.1-9.6,0.3c-2.8,0.1-5.5,0.3-8.3,0.9
			c-4.8,1.1-9,3.2-12.4,6.7c-1,1-2,2-2.9,3.1c-3.8,4.4-6.9,9.4-10,14.3C107.1,141.6,107.1,141.8,107,141.9L107,141.9z M168.2,110.1
			c-1.2,0.1-2.5,0.2-3.7,0.3c-2.4,0.2-4.7,0.4-7.1,0.6c-3,0.2-6,0.3-9,0.5c-1.6,0.1-3.3,0.3-4.9,0.6c-4.9,0.8-9.4,2.6-13.7,4.9
			c-0.2,0.1-0.5,0.3-0.7,0.5c0.2,0.1,0.4,0.1,0.6,0c2.6-0.7,5.2-1.3,7.9-1.4c3.4-0.1,6.9-0.2,10.3-0.3c1.3,0,2.6-0.1,3.9-0.3
			C157.6,114.7,162.8,112.3,168.2,110.1L168.2,110.1z"/>
		<g>
			<path class="st50" d="M189.3,60.4c-2.9,2.9-5.8,5.8-8.8,8.6c-5.5,5.2-11.3,9.9-17.8,13.9c-3.9,2.4-8.1,4.4-12.4,5.9
				c-0.4,0.1-0.8,0.2-1.1,0.3c-0.1,0-0.2,0-0.6,0c5.1-1.9,9.7-4.1,14.1-6.8c4.9-3.1,9.4-6.5,13.7-10.4c4.1-3.7,8.1-7.5,12.1-11.3
				c0.2-0.2,0.4-0.3,0.6-0.5C189.2,60.2,189.3,60.3,189.3,60.4L189.3,60.4z"/>
			<path class="st50" d="M160.8,96.8c0.9-0.1,1.8-0.2,2.7-0.3c5.8-0.6,11.2-2.3,16.5-4.5c5-2.1,9.8-4.7,14.6-7.4
				c0.5-0.3,0.9-0.5,1.5-0.6c-0.4,0.3-0.8,0.5-1.2,0.8c-6.3,3.8-12.7,7.2-19.6,9.6c-3.2,1.1-6.5,1.9-9.8,2.4
				c-1.5,0.2-3.1,0.2-4.6,0.4C160.8,97.1,160.8,97,160.8,96.8L160.8,96.8z"/>
			<path class="st50" d="M139.6,31.7c-1.6,3.7-3.3,7.4-4.8,11.1c-1.6,4.1-2.5,8.3-3.2,12.6c-0.7,4.2-0.9,8.5-0.6,12.7
				c0.1,1.7,0.5,3.4,0.8,5.1c0,0.2,0.1,0.4-0.1,0.7c-0.3-1.4-0.6-2.8-0.9-4.2c-0.5-3.2-0.5-6.4-0.2-9.6c0.8-10,3.8-19.3,8.8-28
				C139.4,32,139.5,31.9,139.6,31.7L139.6,31.7z"/>
			<path class="st50" d="M165,77.3c4.8-3.7,9.5-7.6,13.9-11.6c4.5-4.1,8.3-8.7,12.1-13.4C184.2,62.5,175.1,70.4,165,77.3z"/>
			<path class="st50" d="M195.1,69.7c-1.9,1.8-3.7,3.7-5.6,5.5c-3.7,3.6-7.5,7.1-11.8,10c-3.4,2.3-7,4.3-10.9,5.5
				c-0.1,0-0.1,0-0.5,0c0.4-0.2,0.6-0.3,0.9-0.4c5.6-2.2,10.6-5.3,15.2-9.2c4.1-3.5,8-7.3,12-10.9c0.2-0.2,0.5-0.5,0.7-0.7
				C195.1,69.6,195.1,69.6,195.1,69.7L195.1,69.7z"/>
			<path class="st50" d="M127,31.3c-1.6,3.4-2.9,6.9-3.9,10.6c-0.8,2.8-1.3,5.6-1.6,8.5c-0.5,4.6,0.3,9,1.3,13.4
				c0.1,0.3,0.1,0.5,0.2,0.8c0.1,0.2,0.1,0.4,0.2,0.7C119.3,55.1,120.7,42.6,127,31.3L127,31.3z"/>
			<path class="st50" d="M138.2,86c-0.9-1.7-1.1-3.3-1.3-4.9c-0.5-3.4-0.3-6.8-0.1-10.2c0.3-4.5,1.2-8.9,2.4-13.2
				c0.2-0.6,0.4-1.2,0.6-1.8c0-0.1,0.1-0.1,0.2-0.3c-0.4,1.8-0.9,3.4-1.2,5.1c-0.5,2.8-1,5.5-1.3,8.3c-0.3,2.8-0.4,5.5-0.5,8.3
				c-0.1,2.7,0.5,5.3,1.1,8C138.2,85.5,138.2,85.6,138.2,86L138.2,86z"/>
			<path class="st50" d="M169.9,18.8c-4.3,8.2-7.2,17-9.7,26C160.7,38.8,167,22.1,169.9,18.8z"/>
			<path class="st50" d="M153.8,76c6.8-6.8,11.6-15.2,17-23.1c-0.2,0.4-0.4,0.9-0.7,1.3c-3.4,5.7-6.9,11.4-11.1,16.5
				c-1.5,1.9-3.4,3.6-5,5.4c0,0-0.1,0.1-0.1,0C153.8,76.2,153.8,76.1,153.8,76L153.8,76z"/>
			<path class="st50" d="M143.6,70c2.7-8.6,5.4-17.2,8.1-25.9C149.8,53.1,146.7,61.6,143.6,70z"/>
			<path class="st50" d="M128.4,53.5c-0.9,4.4-1.3,8.8-0.8,13.3c0.5,4.4,1.9,8.6,4.3,12.4c-0.1-0.2-0.3-0.4-0.5-0.6
				c-1.9-2.9-3.4-6-3.9-9.4c-0.5-3.1-0.8-6.3-0.4-9.4c0.3-2.1,0.6-4.2,0.9-6.2C128.2,53.5,128.3,53.5,128.4,53.5L128.4,53.5z"/>
			<path class="st50" d="M156.8,60.5c4-5.4,6.4-11.6,9.4-17.5l0.2,0.1c-0.6,1.5-1.3,3-2,4.6c-0.7,1.5-1.4,3-2.1,4.5
				c-0.8,1.5-1.5,3.1-2.4,4.5C158.2,59.6,157.8,60.1,156.8,60.5L156.8,60.5z"/>
			<path class="st50" d="M206.8,68.7c-0.3,1.7-6.9,9.2-10.4,11.9C199.9,76.6,203.3,72.7,206.8,68.7z"/>
			<path class="st50" d="M124.3,35.1c2.2-5.7,4.9-11.1,9.3-15.5C129.8,24.3,127,29.6,124.3,35.1z"/>
			<path class="st50" d="M152.6,22.7c-0.1,0.4-0.1,0.7-0.2,1c-1.9,3.9-3.8,7.7-5.5,11.2C146.9,33.1,151.1,23.7,152.6,22.7
				L152.6,22.7z"/>
			<path class="st50" d="M206.2,50.3c-0.1,0.3-0.1,0.7-0.3,1c-1.9,3.1-4,6.1-6.3,8.8c-0.1,0-0.1-0.1-0.2-0.2
				c2.2-3.3,4.4-6.5,6.6-9.8C206,50.3,206.1,50.3,206.2,50.3z"/>
			<path class="st50" d="M178.9,41.8c0.1-0.3,0.1-0.7,0.3-0.9c2.1-3.7,4.5-7.2,7.1-10.6c0,0,0.1,0,0.3-0.1c-2.5,3.9-5,7.8-7.5,11.6
				C179,41.9,178.9,41.9,178.9,41.8L178.9,41.8z"/>
			<path class="st50" d="M176.1,38.8c1.4-3.8,2.8-7.7,4.2-11.6c0.1,0,0.1,0,0.2,0c0,0.2,0.1,0.4,0.1,0.6c-0.1,0.3-0.1,0.7-0.2,1
				c-1.3,3.2-2.5,6.4-3.8,9.7c-0.1,0.1-0.2,0.3-0.2,0.4C176.2,38.9,176.1,38.9,176.1,38.8L176.1,38.8z"/>
			<path class="st50" d="M192,37.1c1.8-3,5-7.2,5.7-7.5C197.6,30.6,194.4,34.9,192,37.1z"/>
			<path class="st50" d="M163.5,12.2c-1.6,3.2-3.2,6.4-4.9,9.6c1-3.5,2.6-6.8,4.6-9.8C163.2,12,163.4,12.1,163.5,12.2L163.5,12.2z"
				/>
			<path class="st50" d="M168.7,51c0,1.3-3.1,7.1-4.9,9.3C165.3,57.1,167,54,168.7,51z"/>
			<path class="st50" d="M147.6,64c1.1-3.4,2.3-6.8,3.4-10.4C151.1,55,148.8,62.1,147.6,64z"/>
			<path class="st50" d="M153.9,23.7c0.1,0.8-1.7,4.2-3.2,6.1C151.5,27.6,152.6,25.6,153.9,23.7z"/>
			<path class="st50" d="M164.6,49.4c-1.4,3.8-3,6.8-4.3,7.7c0.8-1.2,1.5-2.5,2.2-3.8C163.2,52.1,163.9,50.8,164.6,49.4L164.6,49.4z
				"/>
			<path class="st50" d="M194.7,35.5c1.4-1.7,2.7-3.4,4.1-5c0.1,0,0.1,0.1,0.2,0.1c0,0.1,0.1,0.4,0,0.4c-1.3,1.6-2.7,3.1-4,4.7
				C194.9,35.7,194.8,35.6,194.7,35.5L194.7,35.5z"/>
			<path class="st50" d="M194.3,43.7c1.1-1.3,2.2-2.7,3.3-4c0.1,0.1,0.2,0.1,0.2,0.2c-1,1.4-2,2.8-3.2,4.1L194.3,43.7L194.3,43.7z"
				/>
			<path class="st50" d="M204.1,56.3c0.8-1.5,1.6-3,2.7-4.3C206.8,53.1,205.4,55.2,204.1,56.3z"/>
		</g>
		<path class="st50" d="M152.4,18.1c0.2,0,0.2,0,0.2,0c1.8-2.1,4.2-3.3,6.9-4.1c1.3-0.4,2.4-1,3.3-1.9c0.2-0.2,0.4-0.4,0.6-0.5
			c2.5-2.5,5.5-3,8.8-2.3c4.7,1,8,4.7,8.3,9.5c0.1,1.5,0,3.1,0,4.7c0,0.5,0,0.9,0,1.6c0.4-0.2,0.7-0.4,1-0.5
			c1.6-0.9,3.1-1.5,4.9-1.8s3.4,0.1,5,1c1.9,1,3.6,2.3,4.9,3.9c0.9,1,1.8,1.9,2.9,2.7c2,1.5,3.1,3.5,3.5,6c0.6,3.4-0.3,6.5-1.9,9.5
			c-0.2,0.3-0.4,0.7-0.6,1c0,0.1,0,0.2,0,0.3c0.5,0.1,1.1,0.3,1.6,0.4c3.1,0.5,4.8,2.3,5.6,5.8c0.6,2.8,0,5.4-0.8,8.1
			c-0.9,2.8-2.3,5.5-4,8c-0.1,0.2-0.3,0.4-0.6,0.9c0.4-0.2,0.7-0.2,0.9-0.4c1.6-1.1,3.6-1.4,5.4-2c1.4-0.4,2.3,0.1,2.5,1.6
			c0.1,0.8,0,1.7-0.2,2.5c-0.5,2-1.6,3.7-2.8,5.3c-3.3,4.4-7.4,8.1-12,11.1c-6.6,4.4-13.9,7.2-21.7,8.3c-3.9,0.6-7.9,0.7-11.9,0.3
			c-3.7-0.3-7.4-0.9-10.8-2.5c-2.1-1-4.4-1.9-6.5-3c-3.1-1.6-6-1.3-8.9,0.6c-0.2,0.1-0.4,0.3-0.6,0.4c-0.1,0-0.2,0-0.5,0
			c0-0.3,0-0.6,0.1-0.9c1.2-3.5,0.3-6.5-2.1-9.2c-6.1-6.5-9.9-14.2-11.6-22.9c-0.9-4.8-1.1-9.5-0.6-14.3c0.8-7.4,2.9-14.4,6.6-21
			c2.6-4.6,6-8.5,10.1-11.8c2-1.7,4.2-3,6.8-3.4c0.8-0.1,1.6-0.2,2.4-0.1c1.5,0.1,2.7,1.3,2.8,3.1c0.1,1.1,0.4,1.9,1.3,2.6
			C151.9,15.5,152.2,16.8,152.4,18.1L152.4,18.1z M158.7,94.2c3.3-0.1,6.6-0.5,9.9-1.3c8.2-2,15.4-6,21.9-11.3
			c3.2-2.6,6-5.6,8.7-8.7c3-3.4,5.3-7.1,6.8-11.4c0.9-2.7,1.4-5.4,0.8-8.3c-0.7-3.1-2.2-4.6-5.3-5.1c-0.3,0-0.5-0.1-0.8-0.2
			c-1.6-0.3-2.8-1.4-4.1-2.2c-1-0.6-1.9-1.4-3-1.7c-2.4-0.8-4.9-1-7.4-0.7c-3.2,0.3-6.2,1.5-9,3.1c-4,2.2-7.8,4.8-11.6,7.4
			c-3.3,2.3-6.5,4.8-9.3,7.7c-1.3,1.4-2.6,2.8-3.3,4.6c-0.2,0.7-0.7,1.2-1,1.8c-2.3,3.9-5.1,7.4-7.9,10.9c-1.3,1.7-2.6,3.3-3.4,5.3
			c-0.6,1.5-0.5,2.9,0.6,4.2c0.9,1,1.9,1.8,3.1,2.5C148.8,93.2,153.6,94,158.7,94.2L158.7,94.2z M124.3,56.2c-0.1,3.2,0.4,6.4,1,9.5
			c1,5.4,3,10.4,6.6,14.6c1.1,1.3,2.3,2.5,3.7,3.6c1.6,1.2,3.4,0.8,4.6-0.8c2.1-2.8,4.3-5.7,6.4-8.5c3-3.9,5.7-8.1,7.7-12.7
			c1.7-4.1,2.9-8.3,4-12.6c0.9-3.5,1.4-7,1.2-10.6c-0.1-2.3-0.5-4.5-0.6-6.8c-0.3-4.1-2.4-6.9-5.9-8.6c-1.9-0.9-3.6-1.9-4.8-3.6
			c-1.2-1.5-2.7-1.8-4.5-1.3c-2.1,0.6-3.8,1.8-5.4,3.2c-2,1.7-3.7,3.7-5.1,5.9C127.1,36.2,124.5,45.8,124.3,56.2L124.3,56.2z
			 M150.8,21.7c0.7,0.4,1.2,0.6,1.7,0.9c4.4,2,6.8,5.4,6.9,10.3c0,1,0.1,2.1,0.3,3.2c0.5,2.8,0.5,5.5,0.1,8.3
			c-0.8,5.7-2.4,11.3-4.5,16.7c-0.1,0.3-0.2,0.5-0.3,1.1c0.4-0.3,0.5-0.5,0.6-0.6c1.9-1.8,3.8-3.7,5.8-5.3c4.6-3.7,9.5-7,14.7-9.9
			c0.6-0.3,1-0.8,1.3-1.4c0.6-1.4,1.4-2.8,1.9-4.3c1.5-4,2.4-8,1.1-12.3c-0.6-1.9-0.6-3.9-0.4-5.9c0.2-1.9,0.1-3.8-0.5-5.7
			c-1.1-3.6-4-6.6-8.8-7c-2.1-0.2-4.2-0.1-5.9,1.5c-2.3,2.2-4.9,3.4-7.9,4.5C154.1,16.5,152.4,19,150.8,21.7L150.8,21.7z
			 M199.4,46.8c0.2-0.1,0.3-0.1,0.4-0.2c1.9-2.8,2.9-5.9,2.6-9.3c-0.2-2.7-1.4-4.9-3.5-6.6c-1-0.8-2-1.6-2.8-2.6
			c-1.4-1.5-2.9-2.8-4.7-3.8c-1.7-0.9-3.5-1.3-5.4-0.9c-2,0.5-3.8,1.3-5.4,2.6c0.2,1.1,0.4,2.1,0.7,3.1c0.6,2,0.5,4.1,0.2,6.1
			c-0.5,3-1.6,5.9-2.9,8.6c-0.2,0.4-0.4,0.8-0.7,1.4c0.5-0.2,0.7-0.2,0.9-0.3c2.5-1.2,5.1-2.1,7.9-2.3c3.8-0.3,7.5,0,10.6,2.6
			C197.9,45.8,198.7,46.3,199.4,46.8L199.4,46.8z M151.9,94.1c0.2,0.2,0.3,0.3,0.4,0.4c0.3,0.1,0.6,0.3,1,0.4
			c2.7,0.9,5.4,1.4,8.2,1.7c4.4,0.4,8.8,0.4,13.1-0.3c9.1-1.5,17.3-5.1,24.5-10.8c3.4-2.7,6.5-5.8,8.9-9.4c1-1.5,1.8-3.1,2.2-4.9
			c0.2-0.9,0.2-1.8-0.6-2.7c-0.4,0-1,0-1.5,0.1c-0.8,0.2-1.6,0.4-2.4,0.7c-2.3,0.7-4.2,2-5.9,3.7c-1.6,1.7-3.1,3.4-4.7,5.1
			c-9,8.7-19.4,14.8-32.1,16.4c-2.9,0.4-5.8,0.4-8.6,0C153.7,94.3,152.9,94.2,151.9,94.1L151.9,94.1z M144,9.8
			c-0.4,0.1-0.6,0.1-0.9,0.2c-1.7,0.5-3.2,1.4-4.6,2.5c-2.4,1.8-4.5,3.9-6.4,6.2c-6.5,7.8-9.6,17-10.8,27c-0.4,3.6-0.3,7.2,0.2,10.9
			c0.6,4.8,1.9,9.4,3.9,13.8c0.1,0.3,0.3,0.6,0.5,0.8c0.1-0.5,0-0.9-0.1-1.3c-1.2-4.1-1.9-8.3-2-12.6c-0.1-4.8,0.5-9.5,1.7-14.1
			c1.7-6.9,4.5-13.2,9.1-18.7c2.2-2.6,4-5.4,5.2-8.5c0.9-2.2,2.1-4.3,4.1-5.8C143.9,10.1,143.9,10,144,9.8L144,9.8z M138.3,20.5
			c0.4-0.3,0.7-0.4,1-0.6c1.1-0.6,2.1-1.3,3.2-1.7c2.9-1.2,4.4-0.8,6.5,1.6c0.2,0.3,0.4,0.5,0.7,0.8c0.2,0.2,0.4,0.4,0.7,0.5
			c0.4-0.7,0.9-1.2,1.2-1.9c0.2-0.4,0.4-0.8,0.3-1.2c-0.1-1.4-0.5-2.8-1.8-3.6c-0.5-0.3-0.7-0.8-0.7-1.4c-0.1-0.8-0.2-1.6-0.5-2.3
			c-0.6-1.3-2-1.8-3.4-1.2c-0.6,0.3-1.1,0.6-1.5,1.1c-1.4,1.2-2.3,2.6-3.1,4.2C140,16.7,139.2,18.5,138.3,20.5z"/>
		<path class="st50" d="M39.4,272.5c0.2-3.8,0.3-7.7,0.5-11.5c0.4-5.1,0.8-10.3,1.4-15.4c0.7-5.5,2.5-10.8,4.7-15.9
			c5.2-12.1,13.1-22.2,23-30.7c2.3-2,4.6-4,6.8-6.1c6.7-6,11.7-13.2,15.4-21.4c3.2-7.1,5.7-14.5,7.9-21.9c1.7-5.6,3.4-11.2,5.7-16.6
			c3.8-8.8,8.8-16.7,15.1-23.9c4.9-5.6,9.9-11.1,14.8-16.7c0.9-1.1,1.8-2.2,2.7-3.3c0.3-0.4,0.6-0.8,0.9-1.1
			c0.1,0.1,0.2,0.1,0.3,0.2c-0.1,0.3-0.2,0.6-0.4,0.9c-1,1.4-2.1,2.8-3.2,4.1c-5.1,5.8-10.3,11.6-15.4,17.5
			c-8.4,9.6-14.1,20.7-17.8,32.9c-2.2,7.2-4.4,14.4-7.1,21.5c-2.3,6.1-5,12-8.7,17.4c-3.2,4.8-7.3,8.9-11.6,12.8
			c-3.7,3.4-7.5,6.6-11.1,10.1c-9.2,9.2-15.7,20.2-19.7,32.6c-1.1,3.3-1.7,6.7-2,10.2c-0.4,4.9-0.8,9.8-1.2,14.7
			c-0.2,2.9-0.3,5.7-0.5,8.5c0,0.4,0,0.8,0,1.2L39.4,272.5L39.4,272.5z"/>
	</g>
</g>
</svg>
